<svg width="19" height="14" viewBox="0 0 19 14" fill="none" xmlns="http://www.w3.org/2000/svg">
<path d="M12.6992 1.69922L11.6417 2.75672L15.8267 6.94922L0.699218 6.94922L0.699219 8.44922L15.8267 8.44922L11.6342 12.6342L12.6992 13.6992L18.6992 7.69922L12.6992 1.69922Z" fill="#474444"/>
<path d="M12.6992 1.69922L11.6417 2.75672L15.8267 6.94922L0.699218 6.94922L0.699219 8.44922L15.8267 8.44922L11.6342 12.6342L12.6992 13.6992L18.6992 7.69922L12.6992 1.69922Z" fill="white"/>
<path d="M12.6992 1.69922L11.6417 2.75672L15.8267 6.94922L0.699218 6.94922L0.699219 8.44922L15.8267 8.44922L11.6342 12.6342L12.6992 13.6992L18.6992 7.69922L12.6992 1.69922Z" fill="#FC5E08"/>
</svg>
