<svg width="18" height="14" viewBox="0 0 18 14" fill="none" xmlns="http://www.w3.org/2000/svg">
<path d="M4.31896 0C5.43896 0 6.35897 0.36 7.07897 1.08C7.79897 1.77333 8.15897 2.69333 8.15897 3.84C8.15897 4.37334 8.0923 4.90667 7.95896 5.44C7.82563 5.97333 7.54563 6.77333 7.11897 7.84L4.79896 13.6H0.838965L2.55897 7.28C1.8923 6.98667 1.3723 6.54667 0.998965 5.96C0.625632 5.37333 0.438965 4.66667 0.438965 3.84C0.438965 2.69333 0.798965 1.77333 1.51897 1.08C2.26563 0.36 3.19896 0 4.31896 0ZM13.759 0C14.879 0 15.799 0.36 16.519 1.08C17.239 1.77333 17.599 2.69333 17.599 3.84C17.599 4.37334 17.5323 4.90667 17.399 5.44C17.2656 5.97333 16.9856 6.77333 16.559 7.84L14.239 13.6H10.279L11.999 7.28C11.3323 6.98667 10.8123 6.54667 10.439 5.96C10.0656 5.37333 9.87897 4.66667 9.87897 3.84C9.87897 2.69333 10.239 1.77333 10.959 1.08C11.7056 0.36 12.639 0 13.759 0Z" fill="#FC5E08"/>
</svg>
