<svg width="88" height="88" viewBox="0 0 88 88" fill="none" xmlns="http://www.w3.org/2000/svg">
<path d="M43.6493 46.5009C45.6967 46.5009 47.3565 44.8411 47.3565 42.7937C47.3565 40.7463 45.6967 39.0865 43.6493 39.0865C41.6019 39.0865 39.9421 40.7463 39.9421 42.7937C39.9421 44.8411 41.6019 46.5009 43.6493 46.5009Z" fill="url(#paint0_linear)"/>
<path d="M43.6499 0.749634C19.6416 0.749634 0.193604 20.1976 0.193604 44.2059C0.193604 68.1849 19.6416 87.6623 43.6499 87.6623C67.6583 87.6623 87.1062 68.2143 87.1062 44.2059C87.0768 20.1976 67.6289 0.749634 43.6499 0.749634ZM12.4037 22.4631C12.4037 22.4631 15.6696 16.1373 22.2895 12.0183C22.2895 12.0183 32.0282 26.6116 31.4692 26.8175C29.3214 27.6708 27.4972 30.7895 27.4972 30.7895L12.4037 22.4631ZM43.6499 60.0056C34.1466 60.0056 26.438 52.297 26.438 42.7937C26.438 33.2904 34.1466 25.5818 43.6499 25.5818C53.1532 25.5818 60.8618 33.2904 60.8618 42.7937C60.8618 52.297 53.1532 60.0056 43.6499 60.0056ZM65.1868 75.1873C65.1868 75.1873 56.066 60.0056 56.3897 59.8585C57.184 59.476 59.9791 56.4161 59.9791 56.4161L75.0726 64.7425C75.1021 64.7131 71.8362 71.0388 65.1868 75.1873Z" fill="url(#paint1_linear)"/>
<defs>
<linearGradient id="paint0_linear" x1="47.3359" y1="42.7946" x2="39.9392" y2="42.7946" gradientUnits="userSpaceOnUse">
<stop stop-color="#FBDF9B"/>
<stop offset="1" stop-color="#FC5E08"/>
</linearGradient>
<linearGradient id="paint1_linear" x1="87.0824" y1="44.1942" x2="0.193604" y2="44.1942" gradientUnits="userSpaceOnUse">
<stop stop-color="#FBDF9B"/>
<stop offset="1" stop-color="#FC5E08"/>
</linearGradient>
</defs>
</svg>
