<svg width="29" height="28" viewBox="0 0 29 28" fill="none" xmlns="http://www.w3.org/2000/svg">
<g clip-path="url(#clip0)">
<path d="M18.4828 24.704H14.9277C14.3339 24.704 13.8509 24.2831 13.8509 23.7657V15.1228H11.7768C11.183 15.1228 10.7 14.7018 10.7 14.1845V11.1904C10.7 10.6729 11.183 10.252 11.7768 10.252H13.8509V8.75267C13.8509 7.26603 14.3866 6.0012 15.3999 5.09517C16.4178 4.185 17.8404 3.70401 19.5137 3.70401L22.225 3.70785C22.8178 3.70873 23.3 4.12965 23.3 4.64621V7.42616C23.3 7.9436 22.8171 8.36452 22.2234 8.36452L20.398 8.36511C19.8413 8.36511 19.6995 8.46237 19.6692 8.49218C19.6192 8.54162 19.5598 8.68139 19.5598 9.06733V10.2519H22.0863C22.2765 10.2519 22.4607 10.2927 22.6191 10.3698C22.9607 10.5361 23.1731 10.8506 23.1731 11.1905L23.1717 14.1846C23.1717 14.7018 22.6887 15.1227 22.0949 15.1227H19.5598V23.7657C19.5598 24.2831 19.0766 24.704 18.4828 24.704ZM15.1523 23.57H18.2582V14.6151C18.2582 14.2696 18.5808 13.9886 18.9772 13.9886H21.8703L21.8715 11.3861H18.977C18.5807 11.3861 18.2582 11.1051 18.2582 10.7596V9.06733C18.2582 8.62427 18.3098 8.12041 18.6936 7.7417C19.1574 7.28388 19.8882 7.23105 20.3977 7.23105L21.9985 7.23046V4.84161L19.5127 4.83807C16.8235 4.83807 15.1523 6.33815 15.1523 8.75267V10.7596C15.1523 11.1049 14.8298 11.3861 14.4335 11.3861H12.0014V13.9886H14.4335C14.8298 13.9886 15.1523 14.2696 15.1523 14.6151V23.57Z" fill="white"/>
</g>
<defs>
<clipPath id="clip0">
<rect width="21" height="20.6244" fill="white" transform="translate(6.5 3.70401)"/>
</clipPath>
</defs>
</svg>
