<svg width="29" height="28" viewBox="0 0 29 28" fill="none" xmlns="http://www.w3.org/2000/svg">
<path d="M19.1949 4.50269H9.47268C6.78797 4.50269 4.61157 6.67908 4.61157 9.3638V19.086C4.61157 21.7707 6.78797 23.9471 9.47268 23.9471H19.1949C21.8796 23.9471 24.056 21.7707 24.056 19.086V9.3638C24.056 6.67908 21.8796 4.50269 19.1949 4.50269Z" stroke="white" stroke-width="1.5" stroke-linecap="round" stroke-linejoin="round"/>
<path d="M18.2225 13.6124C18.3425 14.4215 18.2043 15.2479 17.8276 15.9739C17.4508 16.7 16.8548 17.2888 16.1241 17.6565C15.3935 18.0243 14.5655 18.1523 13.7579 18.0223C12.9503 17.8924 12.2042 17.5111 11.6258 16.9327C11.0475 16.3543 10.6662 15.6083 10.5362 14.8007C10.4063 13.9931 10.5343 13.1651 10.902 12.4344C11.2698 11.7038 11.8585 11.1077 12.5846 10.731C13.3107 10.3542 14.137 10.216 14.9461 10.336C15.7715 10.4584 16.5356 10.843 17.1256 11.433C17.7156 12.023 18.1001 12.7871 18.2225 13.6124Z" stroke="white" stroke-width="1.5" stroke-linecap="round" stroke-linejoin="round"/>
<path d="M19.6809 8.87769H19.6906" stroke="white" stroke-width="1.5" stroke-linecap="round" stroke-linejoin="round"/>
</svg>
