<svg width="20" height="20" viewBox="0 0 20 20" fill="none" xmlns="http://www.w3.org/2000/svg">
<path fill-rule="evenodd" clip-rule="evenodd" d="M10 2.5C7.01574 2.5 4.5 5.13089 4.5 8.5C4.5 10.1823 5.22476 11.9061 6.22333 13.4688C7.21574 15.0219 8.43407 16.3468 9.31993 17.2155C9.70668 17.5948 10.2933 17.5948 10.6801 17.2155C11.5659 16.3468 12.7843 15.0219 13.7767 13.4688C14.7752 11.9061 15.5 10.1823 15.5 8.5C15.5 5.13089 12.9843 2.5 10 2.5ZM3 8.5C3 4.41326 6.0807 1 10 1C13.9193 1 17 4.41326 17 8.5C17 10.591 16.1105 12.6023 15.0407 14.2765C13.9647 15.9603 12.6606 17.3742 11.7303 18.2865C10.7602 19.2378 9.23977 19.2378 8.2697 18.2865C7.33935 17.3742 6.03528 15.9603 4.95934 14.2765C3.88954 12.6023 3 10.591 3 8.5ZM10 6.50424C9.17157 6.50424 8.5 7.17581 8.5 8.00424C8.5 8.83267 9.17157 9.50424 10 9.50424C10.8284 9.50424 11.5 8.83267 11.5 8.00424C11.5 7.17581 10.8284 6.50424 10 6.50424ZM7 8.00424C7 6.34739 8.34315 5.00424 10 5.00424C11.6569 5.00424 13 6.34739 13 8.00424C13 9.6611 11.6569 11.0042 10 11.0042C8.34315 11.0042 7 9.6611 7 8.00424Z" fill="white"/>
</svg>
