<svg width="20" height="20" viewBox="0 0 20 20" fill="none" xmlns="http://www.w3.org/2000/svg">
<path fill-rule="evenodd" clip-rule="evenodd" d="M1 5.75C1 4.23122 2.23122 3 3.75 3H16.25C17.7688 3 19 4.23122 19 5.75V14.25C19 15.7688 17.7688 17 16.25 17H3.75C2.23122 17 1 15.7688 1 14.25V5.75ZM3.75 4.5C3.05964 4.5 2.5 5.05964 2.5 5.75V14.25C2.5 14.9404 3.05964 15.5 3.75 15.5H16.25C16.9404 15.5 17.5 14.9404 17.5 14.25V5.75C17.5 5.05964 16.9404 4.5 16.25 4.5H3.75ZM4.18056 6.26466C4.45012 5.95017 4.9236 5.91375 5.23809 6.18331L10 10.2649L14.7619 6.18331C15.0764 5.91375 15.5499 5.95017 15.8194 6.26466C16.089 6.57916 16.0526 7.05263 15.7381 7.3222L10.4881 11.8222C10.2072 12.0629 9.79277 12.0629 9.51191 11.8222L4.26191 7.3222C3.94741 7.05263 3.91099 6.57916 4.18056 6.26466Z" fill="white"/>
</svg>
