<svg width="87" height="94" viewBox="0 0 87 94" fill="none" xmlns="http://www.w3.org/2000/svg">
<g clip-path="url(#clip0)">
<path d="M43.417 12.2069L46.8639 19.1332C46.9278 19.2921 47.0554 19.4192 47.215 19.4192L54.9068 20.5312C55.3218 20.5948 55.4813 21.1031 55.1941 21.3891L49.6407 26.7903C49.513 26.9174 49.4811 27.0763 49.4811 27.2351L50.7896 34.8604C50.8535 35.2734 50.4386 35.5912 50.0556 35.4005L43.1617 31.8103C43.0021 31.7468 42.8425 31.7468 42.6829 31.8103L35.789 35.4005C35.406 35.5912 34.9911 35.2734 35.0549 34.8604L36.3635 27.2351C36.3954 27.0763 36.3316 26.9174 36.2039 26.7903L30.6505 21.3891C30.4271 21.1031 30.5867 20.5948 31.0016 20.5312L38.6934 19.4192C38.853 19.3874 39.0125 19.2921 39.0764 19.1332L42.5233 12.2069C42.6829 11.8575 43.2255 11.8575 43.417 12.2069Z" stroke="url(#paint0_linear)" stroke-width="3" stroke-miterlimit="10" stroke-linecap="round"/>
<path d="M42.4275 8.41454V1.42468" stroke="url(#paint1_linear)" stroke-width="3" stroke-miterlimit="10" stroke-linecap="round"/>
<path d="M51.8418 13.6051L59.406 6.10693" stroke="url(#paint2_linear)" stroke-width="3" stroke-miterlimit="10" stroke-linecap="round"/>
<path d="M32.6601 13.6052L25.1917 6.17053" stroke="url(#paint3_linear)" stroke-width="3" stroke-miterlimit="10" stroke-linecap="round"/>
<path d="M69.3009 68.5071C62.5985 69.2061 59.8218 78.2929 58.609 85.4416C58.2579 77.2444 55.8003 65.2981 44.7892 63.773C44.5977 63.7413 44.5977 63.5189 44.7892 63.4871C50.1192 62.4386 53.9811 57.3233 52.8959 51.4772C52.13 47.4422 48.8107 44.1697 44.7254 43.4072C38.1825 42.2316 32.5014 47.188 32.5014 53.4789C32.5014 58.4353 36.0441 62.5022 40.7358 63.4553C40.8635 63.4871 40.8635 63.6459 40.7039 63.6777C29.3737 64.8215 27.3629 76.7996 27.331 85.1238C26.1182 78.7059 23.4053 70.5405 17.7242 68.7612C17.5646 68.6977 17.5646 68.5071 17.7242 68.4435C22.3201 67.3315 25.6075 62.8516 24.8096 57.7681C24.2032 53.8919 21.0435 50.6829 17.1816 50.0157C11.1814 48.9673 5.9471 53.5107 5.9471 59.2932C5.9471 63.6142 8.85148 67.2044 12.8091 68.3482C13.0006 68.4117 13.0006 68.6659 12.7772 68.7295C0.202171 71.3983 2.05694 93.1304 2.05694 93.1304H27.8417C27.8417 93.1304 27.8417 93.1304 27.8736 93.1304H58.4174H85.0683C85.0683 93.1304 86.3761 71.1759 73.833 68.4753C73.5138 68.4117 73.4819 68.2211 73.7692 68.1576C78.3013 66.8867 81.461 62.3751 80.5035 57.2598C79.8014 53.5424 76.7374 50.4923 72.9713 49.8251C66.9391 48.7449 61.7048 53.32 61.7048 59.1025C61.6729 64.0272 64.4496 68.0623 69.3009 68.5071Z" stroke="url(#paint4_linear)" stroke-width="3" stroke-miterlimit="10"/>
</g>
<defs>
<linearGradient id="paint0_linear" x1="53.0413" y1="31.6" x2="31.4261" y2="19.0637" gradientUnits="userSpaceOnUse">
<stop stop-color="#FBDF9B"/>
<stop offset="1" stop-color="#FC5E08"/>
</linearGradient>
<linearGradient id="paint1_linear" x1="-nan" y1="-nan" x2="-nan" y2="-nan" gradientUnits="userSpaceOnUse">
<stop stop-color="#FBDF9B"/>
<stop offset="1" stop-color="#FC5E08"/>
</linearGradient>
<linearGradient id="paint2_linear" x1="51.7259" y1="13.7443" x2="59.4843" y2="5.95073" gradientUnits="userSpaceOnUse">
<stop stop-color="#FBDF9B"/>
<stop offset="1" stop-color="#FC5E08"/>
</linearGradient>
<linearGradient id="paint3_linear" x1="32.8522" y1="9.89867" x2="25.0199" y2="9.89867" gradientUnits="userSpaceOnUse">
<stop stop-color="#FBDF9B"/>
<stop offset="1" stop-color="#FC5E08"/>
</linearGradient>
<linearGradient id="paint4_linear" x1="86.2616" y1="68.1893" x2="0.234126" y2="68.1893" gradientUnits="userSpaceOnUse">
<stop stop-color="#FBDF9B"/>
<stop offset="1" stop-color="#FC5E08"/>
</linearGradient>
<clipPath id="clip0">
<rect width="86.0144" height="92.965" fill="white" transform="translate(0.233643 0.356079)"/>
</clipPath>
</defs>
</svg>
