<svg width="20" height="20" viewBox="0 0 20 20" fill="none" xmlns="http://www.w3.org/2000/svg">
<path fill-rule="evenodd" clip-rule="evenodd" d="M6.43459 2.14093C6.62953 2.17365 6.88452 2.27063 7.06689 2.51532L8.68603 4.6879C9.01836 5.13384 9.08878 5.71808 8.87164 6.2279L8.15078 7.92037C8.13535 7.9566 8.14472 7.98307 8.15256 7.99401C8.60954 8.63148 9.18061 9.31134 9.89945 10.0203C9.91069 10.0301 9.92171 10.0403 9.93247 10.0509C10.6645 10.7699 11.3662 11.3395 12.0237 11.7941C12.0348 11.8018 12.0618 11.811 12.0987 11.7959L13.8217 11.088C14.3408 10.8747 14.9357 10.9439 15.3898 11.2703L17.6017 12.8604C17.8509 13.0396 17.9496 13.29 17.9829 13.4814C18.0147 13.6643 17.9969 13.8379 17.9727 13.9704C17.9238 14.2374 17.8134 14.5189 17.7045 14.7574C17.482 15.2446 17.1794 15.7356 17.0327 15.9495L16.9262 16.1046L16.9194 16.1146C16.6223 16.5475 16.177 17.1964 15.4456 17.5181C14.181 18.0743 12.5488 17.8578 10.9497 17.2134C9.34386 16.5662 7.63509 15.4361 6.08409 13.9281C6.07124 13.9171 6.05867 13.9055 6.04643 13.8935C4.4776 12.3527 3.30308 10.6487 2.63461 9.04866C1.97846 7.47812 1.75801 5.87492 2.32436 4.63289C2.65189 3.91462 3.3126 3.47726 3.75343 3.18545C3.75681 3.18321 3.76017 3.18099 3.76353 3.17877L3.92152 3.07417C4.13926 2.93002 4.63931 2.63286 5.13539 2.41433C5.37817 2.30737 5.66482 2.19895 5.93673 2.15098C6.07167 2.12717 6.24841 2.10967 6.43459 2.14093ZM7.04556 12.7911C7.05652 12.8007 7.06727 12.8106 7.07778 12.8209C8.5286 14.2459 10.1014 15.2791 11.5192 15.8505C12.9671 16.434 14.1208 16.4867 14.8325 16.1736C15.1207 16.0469 15.3516 15.7631 15.6823 15.2813L15.7889 15.1261C15.899 14.9655 16.1559 14.5485 16.3359 14.1544C16.3881 14.04 16.4273 13.9416 16.4545 13.8614L14.5038 12.459C14.4739 12.4375 14.4348 12.433 14.4006 12.447L12.6776 13.1549C12.1894 13.3555 11.6144 13.3128 11.1601 12.9987C10.4395 12.5004 9.68197 11.8851 8.90096 11.1212C8.88937 11.1111 8.87802 11.1006 8.86692 11.0897C8.07551 10.3125 7.43973 9.55865 6.92604 8.84208C6.60624 8.39596 6.56277 7.8313 6.76697 7.35187L7.48783 5.6594C7.50213 5.62583 7.49749 5.58736 7.47561 5.558L6.04767 3.64197C5.96598 3.66866 5.86575 3.70716 5.74928 3.75847C5.34806 3.93522 4.9234 4.18751 4.75994 4.29572L4.60195 4.40032C4.11132 4.72513 3.82242 4.95197 3.69335 5.23501C3.37459 5.93406 3.4282 7.06734 4.02233 8.48944C4.59589 9.86229 5.62638 11.383 7.04556 12.7911Z" fill="white"/>
</svg>
