<svg width="29" height="28" viewBox="0 0 29 28" fill="none" xmlns="http://www.w3.org/2000/svg">
<g clip-path="url(#clip0)">
<path d="M26.1629 15.2292C25.6525 13.9605 24.1562 12.8492 22.4354 12.8249C22.1175 11.28 21.2726 9.87031 20.0534 8.88059C18.6846 7.76934 16.9686 7.26281 15.2273 7.46114C14.8589 7.50198 14.5798 7.81406 14.5798 8.18545V20.2974C14.5798 20.6999 14.9104 21.0305 15.3129 21.0305H22.5025C25.2675 21.0305 27.3432 18.1566 26.1629 15.2292ZM22.5025 19.5721H16.0391V8.87864C17.1621 8.89614 18.2432 9.28795 19.1357 10.0123C20.243 10.9116 20.9566 12.2532 21.0947 13.6931C21.1365 14.1306 21.5546 14.4291 21.9746 14.3367C23.3162 14.046 24.5014 15.0036 24.8125 15.7746C25.6 17.7346 24.2437 19.5721 22.5025 19.5721Z" fill="white"/>
<path d="M13.1859 20.3013V10.0181C13.1859 9.05363 11.7275 9.05265 11.7275 10.0181V20.3013C11.7275 21.2657 13.1859 21.2667 13.1859 20.3013Z" fill="white"/>
<path d="M10.3314 20.3013V12.823C10.3314 11.8585 8.87305 11.8576 8.87305 12.823V20.3013C8.87305 21.2658 10.3314 21.2667 10.3314 20.3013Z" fill="white"/>
<path d="M7.47884 20.3013V12.823C7.47884 11.8585 6.02051 11.8576 6.02051 12.823V20.3013C6.02051 21.2658 7.47884 21.2667 7.47884 20.3013Z" fill="white"/>
<path d="M4.62533 20.3013V14.6925C4.62533 13.7281 3.16699 13.7271 3.16699 14.6925V20.3013C3.16699 21.2657 4.62533 21.2667 4.62533 20.3013Z" fill="white"/>
</g>
<defs>
<clipPath id="clip0">
<rect width="23.3333" height="22.916" fill="white" transform="translate(3.16699 2.55823)"/>
</clipPath>
</defs>
</svg>
