<svg width="29" height="28" viewBox="0 0 29 28" fill="none" xmlns="http://www.w3.org/2000/svg">
<g clip-path="url(#clip0)">
<path d="M18.4848 17.2993C14.99 15.6842 10.0985 16.3986 9.89201 16.4297C9.43165 16.4993 9.11481 16.9287 9.18438 17.3891C9.25396 17.8495 9.68375 18.1659 10.1438 18.0967C10.1894 18.0897 14.7369 17.4244 17.7775 18.8296C17.8919 18.8826 18.0123 18.9076 18.1306 18.9076C18.4491 18.9075 18.754 18.7262 18.8964 18.4182C19.0916 17.9956 18.9074 17.4946 18.4848 17.2993Z" fill="white"/>
<path d="M19.467 14.2637C15.4981 12.4295 9.93241 13.2424 9.6974 13.2778C9.23726 13.3473 8.92065 13.7766 8.99 14.2367C9.05923 14.6969 9.4888 15.014 9.94882 14.9449C10.0014 14.9369 15.2544 14.1742 18.7597 15.7941C18.8744 15.8471 18.9945 15.8721 19.1129 15.8721C19.4314 15.872 19.7362 15.6907 19.8787 15.3825C20.0739 14.9599 19.8896 14.459 19.467 14.2637Z" fill="white"/>
<path d="M20.1273 11.0923C15.7433 9.06617 9.58602 9.9652 9.32606 10.0044C8.86592 10.074 8.54931 10.5032 8.61866 10.9634C8.68801 11.4235 9.11768 11.741 9.57748 11.6714C9.63626 11.6626 15.4996 10.8108 19.42 12.6226C19.5345 12.6755 19.6548 12.7006 19.7732 12.7006C20.0917 12.7006 20.3965 12.5192 20.5389 12.2111C20.7342 11.7884 20.5499 11.2876 20.1273 11.0923Z" fill="white"/>
<path d="M14.5003 3.70502C8.71051 3.70502 4.00024 8.41517 4.00024 14.2046C4.00024 19.9944 8.71051 24.7048 14.5003 24.7048C20.29 24.7048 25.0002 19.9944 25.0002 14.2046C25.0002 8.41517 20.29 3.70502 14.5003 3.70502ZM14.5003 23.0189C9.64011 23.0189 5.68613 19.0649 5.68613 14.2046C5.68613 9.34465 9.64011 5.39079 14.5003 5.39079C19.3604 5.39079 23.3144 9.34465 23.3144 14.2046C23.3144 19.0649 19.3604 23.0189 14.5003 23.0189Z" fill="white"/>
</g>
<defs>
<clipPath id="clip0">
<rect width="21" height="20.6244" fill="white" transform="translate(4.00024 3.70401)"/>
</clipPath>
</defs>
</svg>
