<svg width="58" height="57" viewBox="0 0 58 57" fill="none" xmlns="http://www.w3.org/2000/svg">
<g clip-path="url(#clip0)">
<path d="M50.028 5.36101C49.4173 4.6141 48.5025 4.20287 47.452 4.20287C46.8809 4.20287 46.2759 4.32303 45.6541 4.56069L3.33003 20.7171C1.08394 21.5742 0.781435 22.8606 0.80089 23.551C0.820345 24.2415 1.19533 25.5087 3.48644 26.2377C3.50017 26.2419 3.5139 26.2461 3.52764 26.2499L12.3068 28.7623L17.0546 42.3388C17.7019 44.1897 19.1549 45.3394 20.8471 45.3394C21.9141 45.3394 22.9635 44.8923 23.8821 44.047L29.3123 39.0471L37.1885 45.389C37.1893 45.3898 37.1904 45.3902 37.1912 45.3909L37.266 45.4512C37.2728 45.4565 37.2801 45.4623 37.2869 45.4676C38.1624 46.1466 39.118 46.5052 40.0515 46.5056H40.0518C41.8756 46.5056 43.3279 45.1556 43.7509 43.0666L50.6857 8.82438C50.9642 7.44994 50.7307 6.22008 50.028 5.36101ZM15.2437 28.2851L32.1814 19.6322L21.6349 30.8386C21.4621 31.0221 21.3396 31.2468 21.2793 31.4913L19.2457 39.7288L15.2437 28.2851ZM21.8973 41.8917C21.8271 41.9562 21.7565 42.0138 21.686 42.0668L23.5727 34.4252L27.0048 37.1889L21.8973 41.8917ZM47.8144 8.24264L40.8796 42.4853C40.8129 42.8129 40.5996 43.5755 40.0515 43.5755C39.7806 43.5755 39.4403 43.4279 39.0921 43.1597L30.1672 35.9736C30.166 35.9724 30.1645 35.9713 30.163 35.9705L24.8526 31.6943L40.1041 15.4883C40.5924 14.9695 40.6366 14.1749 40.209 13.605C39.781 13.035 39.0055 12.8557 38.3711 13.18L13.2864 25.9951L4.38785 23.4492L46.6989 7.29774C47.0564 7.16117 47.3059 7.13256 47.452 7.13256C47.5416 7.13256 47.7011 7.14324 47.7602 7.2161C47.838 7.31109 47.9372 7.63495 47.8144 8.24264Z" fill="white" fill-opacity="0.5"/>
</g>
<defs>
<clipPath id="clip0">
<rect width="56.6667" height="55.653" fill="white" transform="translate(0.800049 0.394287)"/>
</clipPath>
</defs>
</svg>
