<svg width="28" height="28" viewBox="0 0 28 28" fill="none" xmlns="http://www.w3.org/2000/svg">
<g clip-path="url(#clip0)">
<path d="M11.6562 23.1809C9.92572 23.1809 8.29681 22.5389 7.07025 21.3774C5.29291 19.6889 4.67572 17.1914 5.59369 14.7608C5.62103 14.6866 5.65228 14.6161 5.68744 14.5418C6.91791 12.0666 9.42181 10.6973 12.1093 10.8717C12.289 10.8828 12.4374 11.035 12.4374 11.2057V14.4268C12.4374 14.8387 12.082 15.169 11.6523 15.169C10.5702 15.169 9.69134 15.9965 9.69134 17.0133C9.69134 18.0301 10.5702 18.8577 11.6523 18.8577C11.8632 18.8577 12.0703 18.8243 12.2695 18.7649C13.0703 18.5162 13.6093 17.8149 13.6132 17.0207V4.91937C13.6132 4.50746 13.9648 4.17719 14.4023 4.17719H17.3593C17.7929 4.17719 18.1406 4.50746 18.1406 4.91937C18.1445 6.93812 19.8749 8.57836 22.0038 8.57836C22.4374 8.57836 22.789 8.90863 22.789 9.32054V12.1446C22.789 12.5565 22.4374 12.8868 22.0038 12.8868C20.871 12.8868 19.7695 12.6752 18.7304 12.2596C18.5312 12.178 18.332 12.0926 18.1406 11.9961V17.0393C18.1328 18.6795 17.457 20.2159 16.2421 21.3737C15.2538 22.3125 14.0038 22.9137 12.6288 23.1104C12.3085 23.1549 11.9804 23.1809 11.6562 23.1809ZM10.8749 12.4006C9.79681 12.5639 8.80462 13.0649 8.04291 13.8442C7.21869 14.6903 6.74994 15.8036 6.73431 16.9577C6.71869 18.2305 7.23041 19.4254 8.17572 20.3235C9.10541 21.2067 10.3398 21.6928 11.6562 21.6928C11.9062 21.6928 12.1523 21.6743 12.3984 21.6409C13.4374 21.4924 14.3867 21.036 15.1367 20.3235C16.0624 19.4477 16.5742 18.2787 16.5781 17.0356V10.6491C16.5781 10.3002 16.832 9.99222 17.2148 9.92172C17.4374 9.8809 17.6679 9.93656 17.8476 10.0702C18.3046 10.4041 18.8085 10.6825 19.3437 10.894C19.9492 11.1352 20.5781 11.2948 21.2265 11.3616V10.0071C18.8593 9.68051 16.9804 7.90297 16.6367 5.65785H15.1718V17.0207C15.1679 18.4569 14.1992 19.7223 12.7656 20.1713C12.4101 20.2827 12.0351 20.342 11.6601 20.342C9.72259 20.342 8.14837 18.8502 8.14837 17.0133C8.14837 15.4325 9.31634 14.1039 10.8788 13.7662V12.4006H10.8749Z" fill="white"/>
</g>
<defs>
<clipPath id="clip0">
<rect width="20" height="18.6601" fill="white" transform="translate(4 4.17719)"/>
</clipPath>
</defs>
</svg>
