<svg width="48" height="52" viewBox="0 0 48 52" fill="none" xmlns="http://www.w3.org/2000/svg">
<path d="M28.7614 0.739563H19.2377C9.26266 0.739563 1.14722 8.8531 1.14722 18.8263V27.4054C1.14722 34.8324 5.71102 41.5072 12.5734 44.2257V49.7874C12.5734 50.1644 12.7953 50.5053 13.1399 50.6577C13.2637 50.7129 13.3951 50.7396 13.5256 50.7396C13.757 50.7396 13.9864 50.6548 14.1645 50.4929L19.6862 45.4921H28.7614C38.7365 45.4921 46.8519 37.3786 46.8519 27.4054V18.8263C46.8519 8.8531 38.7365 0.739563 28.7614 0.739563ZM44.9476 27.4054C44.9476 36.3283 37.6872 43.5877 28.7614 43.5877H19.3186C19.0825 43.5877 18.8549 43.6753 18.6797 43.8343L14.4778 47.6402V43.5658C14.4778 43.1621 14.2235 42.8022 13.8427 42.6689C7.38877 40.3865 3.05158 34.2525 3.05158 27.4054V18.8263C3.05158 9.90336 10.3129 2.64393 19.2377 2.64393H28.7614C37.6872 2.64393 44.9476 9.90336 44.9476 18.8263V27.4054Z" fill="white" fill-opacity="0.5"/>
<path d="M19.2377 0.489563H28.7614C38.8745 0.489563 47.1019 8.71498 47.1019 18.8263V27.4054C47.1019 37.5167 38.8745 45.7421 28.7614 45.7421H19.7826L14.3327 50.6779L19.2377 0.489563ZM19.2377 0.489563C9.12464 0.489563 0.897217 8.71498 0.897217 18.8263M19.2377 0.489563L0.897217 18.8263M0.897217 18.8263V27.4054M0.897217 18.8263V27.4054M0.897217 27.4054C0.897217 34.8781 5.45398 41.5993 12.3234 44.3947M0.897217 27.4054L12.3234 44.3947M12.3234 44.3947V49.7874C12.3234 50.2631 12.6033 50.6935 13.0382 50.886C13.0384 50.8861 13.0386 50.8862 13.0389 50.8863L13.1399 50.6577M12.3234 44.3947L14.3323 50.6782L14.1645 50.4929C13.9864 50.6548 13.757 50.7396 13.5256 50.7396C13.3951 50.7396 13.2637 50.7129 13.1399 50.6577M13.1399 50.6577C12.7953 50.5053 12.5734 50.1644 12.5734 49.7874V44.2257L13.1399 50.6577ZM28.7614 43.3377C37.5492 43.3377 44.6976 36.1902 44.6976 27.4054V18.8263C44.6976 10.0415 37.5492 2.89393 28.7614 2.89393H19.2377C10.4509 2.89393 3.30158 10.0415 3.30158 18.8263V27.4054C3.30158 34.1463 7.57166 40.1856 13.9252 42.4329L28.7614 43.3377ZM28.7614 43.3377H19.3186M28.7614 43.3377H19.3186M19.3186 43.3377C19.0206 43.3377 18.7332 43.4483 18.5119 43.649L19.3186 43.3377ZM18.5117 43.6492L14.7278 47.0765V43.5658C14.7278 43.0567 14.4072 42.602 13.926 42.4332L18.5117 43.6492Z" stroke="white" stroke-opacity="0.5" stroke-width="0.5"/>
<path d="M36.5837 29.7744L30.7316 25.9733C30.0917 25.5572 29.33 25.4163 28.5844 25.5705C27.8379 25.7277 27.1961 26.1685 26.78 26.8112L26.5048 27.234C23.972 26.397 21.1793 25.3277 19.5073 20.4878L20.1995 19.886C21.3878 18.8529 21.5126 17.0457 20.4794 15.8554L15.9014 10.5889C15.5567 10.1919 14.9549 10.1509 14.5578 10.4947L11.6832 12.9932C9.16181 15.1851 10.3397 18.4273 10.7272 19.4928C10.7443 19.5404 10.7653 19.5861 10.79 19.6308C10.89 19.8099 13.2771 24.0699 17.1325 27.9967C21.0031 31.9397 27.9912 35.5808 28.2054 35.6865C29.0034 36.2045 29.9013 36.453 30.7897 36.453C32.3493 36.453 33.8785 35.6884 34.7907 34.2868L36.8646 31.0932C37.1502 30.6504 37.0245 30.061 36.5837 29.7744ZM33.193 33.2489C32.3351 34.5706 30.5621 34.9457 29.1624 34.0431C29.0929 34.0069 22.1505 30.3914 18.4913 26.6637C15.071 23.1796 12.8001 19.309 12.4906 18.7691C11.7365 16.6543 11.8698 15.3546 12.9324 14.431L15.0891 12.5571L19.0426 17.1047C19.394 17.5084 19.353 18.0988 18.9512 18.4482L17.7829 19.4633C17.4982 19.7108 17.3858 20.1022 17.4972 20.4621C19.4892 26.935 23.3626 28.2062 26.1906 29.1346L26.6029 29.2707C27.0152 29.4097 27.4665 29.2507 27.7027 28.887L28.3778 27.8472C28.5168 27.632 28.7301 27.4863 28.9777 27.434C29.2262 27.3806 29.4795 27.4302 29.6947 27.5701L34.7488 30.8523L33.193 33.2489Z" fill="white" fill-opacity="0.5"/>
<path d="M36.7199 29.5648L36.7199 29.5648L30.8679 25.7637C30.1723 25.3114 29.3433 25.1582 28.5338 25.3257L28.5329 25.3259C27.7211 25.4968 27.0224 25.9769 26.5702 26.6754L26.4006 26.9359C25.1944 26.5328 23.9681 26.0678 22.8392 25.1666C21.6843 24.2447 20.6156 22.8525 19.7994 20.5651L20.3635 20.0747L20.3635 20.0747C21.6563 18.9507 21.7915 16.9857 20.6682 15.6916L20.6681 15.6914L16.0901 10.425C15.6545 9.92318 14.8949 9.87218 14.3942 10.3056L14.3938 10.306L11.5192 12.8045L11.5192 12.8045C10.1882 13.9616 9.83547 15.4001 9.86441 16.6711C9.89311 17.931 10.2965 19.04 10.4909 19.5746L10.492 19.5775C10.492 19.5776 10.4921 19.5778 10.4922 19.578C10.514 19.6386 10.5406 19.6963 10.5713 19.7519L10.5718 19.7527C10.6755 19.9385 13.0755 24.2214 16.9541 28.1719C18.9104 30.1647 21.645 32.0731 23.9073 33.4924C26.1076 34.8728 27.877 35.8003 28.081 35.9038C28.9178 36.4437 29.8588 36.703 30.7897 36.703C32.4302 36.703 34.04 35.8987 35.0003 34.4232L35.0004 34.423L37.0742 31.2294L37.0746 31.2287C37.4348 30.6705 37.2766 29.9267 36.7199 29.5648ZM29.2979 33.833L29.2881 33.8267L29.2778 33.8213C29.2462 33.8048 27.4995 32.8953 25.3054 31.5256C23.1075 30.1537 20.4778 28.3305 18.6697 26.4885L18.4913 26.6637L18.6697 26.4885C15.31 23.0662 13.0643 19.2649 12.7186 18.6641C12.3525 17.6319 12.213 16.8256 12.279 16.1787C12.3442 15.5396 12.6113 15.0414 13.0964 14.6197C13.0964 14.6197 13.0964 14.6197 13.0965 14.6197L15.0644 12.9097L18.8539 17.2687L18.854 17.2688C19.115 17.5688 19.0844 18.0011 18.7871 18.2596L17.6189 19.2745L17.6188 19.2746C17.2599 19.5867 17.1176 20.0807 17.2583 20.5356C18.2673 23.8144 19.76 25.7955 21.3753 27.0736C22.9808 28.344 24.6913 28.9055 26.1014 29.3684L26.1122 29.372L26.1126 29.3721L26.523 29.5076C26.5232 29.5077 26.5234 29.5078 26.5236 29.5078C27.0447 29.6832 27.6146 29.4819 27.9124 29.0231L28.5875 27.9834L28.5878 27.9829C28.6905 27.8238 28.8468 27.7172 29.0294 27.6786L29.0301 27.6784C29.2113 27.6395 29.397 27.6747 29.5583 27.7797L29.5585 27.7798L34.403 30.9258L32.9833 33.1128L33.193 33.2489L32.9833 33.1128C32.2035 34.3141 30.5867 34.6641 29.2979 33.833Z" stroke="white" stroke-opacity="0.5" stroke-width="0.5"/>
<path d="M26.1734 16.2097C25.6668 16.064 25.1403 16.3582 24.9965 16.8648C24.8527 17.3704 25.146 17.8969 25.6516 18.0407C27.0704 18.4444 28.2006 19.5766 28.6005 20.9963C28.7186 21.4152 29.1004 21.6904 29.5165 21.6904C29.6022 21.6904 29.6889 21.679 29.7755 21.6552C30.2811 21.5124 30.5763 20.9867 30.4335 20.4802C29.8555 18.4292 28.2225 16.7924 26.1734 16.2097Z" fill="white" fill-opacity="0.5"/>
<path d="M28.3599 21.0641L28.3599 21.0641C27.9835 19.728 26.9186 18.6612 25.5832 18.2812L28.3599 21.0641ZM28.3599 21.0641C28.5091 21.5934 28.9912 21.9404 29.5165 21.9404C29.6246 21.9404 29.7335 21.926 29.8417 21.8962L29.8417 21.8963M28.3599 21.0641L29.8417 21.8963M29.8417 21.8963L29.8435 21.8958M29.8417 21.8963L29.8435 21.8958M29.8435 21.8958C30.4817 21.7155 30.8544 21.052 30.6741 20.4124C30.0726 18.2779 28.3746 16.5759 26.2421 15.9693C25.6021 15.7854 24.9375 16.1575 24.756 16.7964L29.8435 21.8958ZM24.756 16.7965C24.5746 17.4348 24.9448 18.0996 25.5832 18.2812L24.756 16.7965Z" stroke="white" stroke-opacity="0.5" stroke-width="0.5"/>
<path d="M33.4196 21.8961C33.5053 21.8961 33.592 21.8847 33.6786 21.8608C34.1852 21.718 34.4794 21.1915 34.3366 20.6859C33.213 16.7029 30.0432 13.5264 26.0631 12.3933C25.5575 12.2476 25.0309 12.5438 24.8871 13.0494C24.7434 13.555 25.0366 14.0815 25.5422 14.2253C28.8911 15.1775 31.5581 17.8522 32.5036 21.2029C32.6227 21.6219 33.0035 21.8961 33.4196 21.8961Z" fill="white" fill-opacity="0.5"/>
<path d="M33.7448 22.1019L33.7465 22.1015C34.386 21.9211 34.7575 21.2564 34.5772 20.618C33.4301 16.5516 30.1953 13.3099 26.1319 12.153C25.4919 11.9688 24.8278 12.3439 24.6467 12.981C24.4651 13.6193 24.8354 14.2842 25.4738 14.4658L25.4739 14.4658C28.7391 15.3942 31.3411 18.0035 32.263 21.2708L32.2631 21.2712C32.4134 21.8001 32.8943 22.1461 33.4196 22.1461C33.5277 22.1461 33.6367 22.1316 33.7448 22.1019Z" stroke="white" stroke-opacity="0.5" stroke-width="0.5"/>
<path d="M25.6526 7.959C25.1461 7.81332 24.6195 8.10754 24.4758 8.61506C24.332 9.12066 24.6252 9.64722 25.1309 9.791C30.8049 11.4049 35.3249 15.9354 36.9265 21.6133C37.0446 22.0322 37.4264 22.3074 37.8425 22.3074C37.9282 22.3074 38.0148 22.296 38.1015 22.2722C38.6071 22.1294 38.9023 21.6028 38.7594 21.0972C36.9798 14.7871 31.958 9.75386 25.6526 7.959Z" fill="white" fill-opacity="0.5"/>
<path d="M38.1694 22.5128L38.1677 22.5133C38.0595 22.543 37.9506 22.5574 37.8425 22.5574C37.3172 22.5574 36.835 22.2104 36.6859 21.6811C35.1078 16.0868 30.653 11.6217 25.0625 10.0315C24.424 9.84991 24.0538 9.18511 24.2353 8.54677M38.1694 22.5128L39 21.0292C37.1968 14.6358 32.11 9.53733 25.7214 7.71865C25.0813 7.53473 24.4166 7.90692 24.2353 8.54677M38.1694 22.5128C38.8076 22.3325 39.1804 21.668 39 21.0293L38.1694 22.5128ZM24.2353 8.54677C24.2352 8.54682 24.2352 8.54686 24.2352 8.54691L24.4758 8.61506L24.2353 8.54667C24.2353 8.54671 24.2353 8.54674 24.2353 8.54677Z" stroke="white" stroke-opacity="0.5" stroke-width="0.5"/>
</svg>
