<svg width="57" height="57" viewBox="0 0 57 57" fill="none" xmlns="http://www.w3.org/2000/svg">
<path fill-rule="evenodd" clip-rule="evenodd" d="M8.46382 28.6018C8.46382 24.7035 9.64087 20.8927 11.8461 17.6513C14.0514 14.4099 17.1858 11.8836 20.853 10.3918C24.5202 8.89993 28.5555 8.5096 32.4486 9.27013C36.3417 10.0307 39.9177 11.9079 42.7245 14.6645C45.5313 17.421 47.4427 20.9331 48.2171 24.7565C48.9915 28.58 48.594 32.5431 47.075 36.1447C45.556 39.7463 42.9837 42.8247 39.6832 44.9905C36.3828 47.1563 32.5026 48.3123 28.5333 48.3123C24.7362 48.3189 21.016 47.2619 17.8091 45.2653C17.5238 45.0881 17.2032 44.973 16.8688 44.9278C16.5344 44.8826 16.194 44.9083 15.8706 45.0033L9.07063 46.9952L11.6324 41.1122C11.7813 40.7697 11.8441 40.397 11.8153 40.0257C11.7865 39.6543 11.6671 39.2953 11.4672 38.9788C9.49782 35.8637 8.45733 32.2686 8.46382 28.6018ZM28.5333 4.25364C14.8412 4.25364 3.7416 15.1547 3.7416 28.6018C3.7416 32.8639 4.8584 36.8756 6.82285 40.3655L2.74993 49.7199C2.57365 50.1251 2.51858 50.5712 2.59116 51.0061C2.66374 51.4409 2.86098 51.8464 3.15977 52.1752C3.45856 52.5039 3.84653 52.7422 4.27825 52.8622C4.70996 52.9822 5.16756 52.9789 5.59743 52.8527L16.2224 49.7407C19.9696 51.8496 24.2145 52.9562 28.5333 52.9501C42.2253 52.9501 53.3249 42.049 53.3249 28.6018C53.3249 15.1547 42.2253 4.25364 28.5333 4.25364ZM33.9473 33.6616L30.8424 35.8089C29.1317 34.8423 27.5609 33.6545 26.1722 32.2773C24.6812 30.815 23.392 29.1669 22.3377 27.3752L24.3092 25.7311C24.72 25.3888 24.9993 24.9188 25.1007 24.3991C25.202 23.8795 25.1194 23.3414 24.8665 22.8742L22.3542 18.2365C22.1871 17.9285 21.9512 17.6615 21.6644 17.4555C21.3775 17.2495 21.047 17.1097 20.6974 17.0466C20.3479 16.9835 19.9884 16.9987 19.6456 17.0911C19.3029 17.1835 18.9859 17.3507 18.7181 17.5802L17.972 18.2179C16.1799 19.753 15.1198 22.276 15.9981 24.8314C17.4113 28.8734 19.7497 32.5432 22.8335 35.5585C27.1142 39.7626 31.4634 41.4183 34.0087 42.0629C36.0581 42.58 37.9966 41.8867 39.3637 40.7922L40.7591 39.6745C41.0533 39.4389 41.2853 39.1371 41.4355 38.7947C41.5856 38.4523 41.6495 38.0793 41.6217 37.7075C41.5939 37.3357 41.4752 36.976 41.2758 36.6588C41.0763 36.3416 40.8018 36.0763 40.4758 35.8854L36.5138 33.5666C36.122 33.337 35.6709 33.2238 35.215 33.2406C34.7592 33.2575 34.318 33.4037 33.9449 33.6616H33.9473Z" fill="white"/>
</svg>
