<svg width="129" height="54" viewBox="0 0 129 54" fill="none" xmlns="http://www.w3.org/2000/svg">
<g clip-path="url(#clip0)">
<path d="M0.253662 53.7576H128.841" stroke="url(#paint0_linear)" stroke-width="3" stroke-miterlimit="10"/>
<path d="M10.3469 53.7581C10.3469 53.7581 14.719 53.7581 16.0674 48.4149C17.0889 44.3714 18.0286 34.6959 22.1147 34.407C28.162 33.9738 24.6889 53.7581 32.6566 53.8543C41.7684 53.9506 42.7491 14.4783 48.3061 15.2485C53.7814 16.0187 55.8244 53.7581 61.5448 53.7581C67.2652 53.7581 66.2029 34.5996 72.2502 34.5996C80.0136 34.5996 75.6824 53.7581 83.8545 53.7581C92.0265 53.7581 90.3606 4.16699 95.9176 4.16699C101.475 4.16699 98.8093 53.7581 105.633 53.7581C112.457 53.7581 111.067 27.716 115.971 27.6679C120.424 27.6197 120.424 53.7581 122.835 53.7581" stroke="url(#paint1_linear)" stroke-miterlimit="10"/>
<path d="M12.1028 53.7581C12.1028 53.7581 16.4748 53.7581 17.8232 48.4149C18.8447 44.3714 19.7845 34.6959 23.8705 34.4071C29.9178 33.9738 26.4447 53.7581 34.4125 53.8544C43.5243 53.9506 44.5049 14.4784 50.0619 15.2486C55.5372 16.0187 57.5802 53.7581 63.3006 53.7581C69.0211 53.7581 67.9587 34.5996 74.006 34.5996C81.7695 34.5996 77.4383 53.7581 85.6103 53.7581C93.7824 53.7581 92.0254 4.93884 97.5824 4.93884C103.139 4.93884 100.565 53.7581 107.389 53.7581C114.212 53.7581 112.823 27.716 117.726 27.6679C122.18 27.6197 122.18 53.7581 124.591 53.7581" stroke="url(#paint2_linear)" stroke-miterlimit="10"/>
<path d="M8.26221 53.758C8.26221 53.758 12.6343 53.758 13.9826 48.4149C15.0041 44.3713 15.9439 34.6958 20.03 34.407C26.0773 33.9738 22.6041 53.7581 30.5719 53.8543C39.6837 53.9506 40.6644 14.4783 46.2214 15.2485C51.6966 16.0187 53.7396 53.758 59.4601 53.758C65.1805 53.758 64.1181 34.5996 70.1655 34.5996C77.9289 34.5996 73.5977 53.758 81.7698 53.758C89.9418 53.758 88.2257 4.18335 93.8235 4.18335C99.4214 4.18335 96.8063 53.758 103.63 53.758C110.454 53.758 109.064 27.716 113.968 27.6678C118.421 27.6197 118.421 53.758 120.832 53.758" stroke="url(#paint3_linear)" stroke-miterlimit="10"/>
</g>
<defs>
<linearGradient id="paint0_linear" x1="-nan" y1="-nan" x2="-nan" y2="-nan" gradientUnits="userSpaceOnUse">
<stop stop-color="#FBDF9B"/>
<stop offset="1" stop-color="#FC5E08"/>
</linearGradient>
<linearGradient id="paint1_linear" x1="122.916" y1="27.5933" x2="10.3522" y2="27.5933" gradientUnits="userSpaceOnUse">
<stop stop-color="#FBDF9B"/>
<stop offset="1" stop-color="#FC5E08"/>
</linearGradient>
<linearGradient id="paint2_linear" x1="124.669" y1="27.5933" x2="12.1056" y2="27.5933" gradientUnits="userSpaceOnUse">
<stop stop-color="#FBDF9B"/>
<stop offset="1" stop-color="#FC5E08"/>
</linearGradient>
<linearGradient id="paint3_linear" x1="120.836" y1="27.5933" x2="8.27202" y2="27.5933" gradientUnits="userSpaceOnUse">
<stop stop-color="#FBDF9B"/>
<stop offset="1" stop-color="#FC5E08"/>
</linearGradient>
<clipPath id="clip0">
<rect width="128.587" height="52.9988" fill="white" transform="translate(0.253662 0.69165)"/>
</clipPath>
</defs>
</svg>
