<svg width="29" height="28" viewBox="0 0 29 28" fill="none" xmlns="http://www.w3.org/2000/svg">
<g clip-path="url(#clip0)">
<path d="M24.4139 8.79989C24.2984 8.33848 24.0632 7.91572 23.732 7.57431C23.4009 7.2329 22.9855 6.98493 22.5278 6.85545C20.8556 6.44711 14.1667 6.44711 14.1667 6.44711C14.1667 6.44711 7.47779 6.44711 5.80557 6.89434C5.34789 7.02382 4.93249 7.27179 4.60132 7.6132C4.27015 7.95461 4.03495 8.37737 3.91946 8.83878C3.61342 10.5358 3.46371 12.2574 3.47224 13.9818C3.46133 15.7192 3.61104 17.4539 3.91946 19.1638C4.04678 19.6109 4.28726 20.0175 4.61765 20.3445C4.94805 20.6715 5.3572 20.9078 5.80557 21.0304C7.47779 21.4777 14.1667 21.4777 14.1667 21.4777C14.1667 21.4777 20.8556 21.4777 22.5278 21.0304C22.9855 20.901 23.4009 20.653 23.732 20.3116C24.0632 19.9702 24.2984 19.5474 24.4139 19.086C24.7176 17.4017 24.8673 15.6933 24.8611 13.9818C24.872 12.2444 24.7223 10.5097 24.4139 8.79989V8.79989Z" stroke="white" stroke-width="1.5" stroke-linecap="round" stroke-linejoin="round"/>
<path d="M11.9792 17.161L17.5695 13.9818L11.9792 10.8027V17.161Z" stroke="white" stroke-width="1.5" stroke-linecap="round" stroke-linejoin="round"/>
</g>
<defs>
<clipPath id="clip0">
<rect width="23.3333" height="22.916" fill="white" transform="translate(2.5 2.55823)"/>
</clipPath>
</defs>
</svg>
