<svg width="307" height="244" viewBox="0 0 307 244" fill="none" xmlns="http://www.w3.org/2000/svg">
<path d="M121.976 140.757L121.975 140.76L81.375 241.56L80.9965 242.5H79.9836H10.6836H8.72081L9.23624 240.606L39 131.242C27.6375 125.999 18.6961 118.285 12.2181 108.105C5.50474 97.5558 2.18359 84.8974 2.18359 70.2C2.18359 49.7914 8.60532 33.2784 21.5428 20.8199L121.976 140.757ZM121.976 140.757C129.447 122.08 134.379 108.001 136.739 98.5638C139.101 89.1152 140.284 79.6597 140.284 70.2C140.284 49.7965 133.865 33.2866 120.934 20.8293M121.976 140.757L120.934 20.8293M120.934 20.8293C108.025 7.92523 91.5325 1.5 71.5836 1.5C51.6296 1.5 34.9128 7.92768 21.5431 20.8195L120.934 20.8293ZM287.175 140.76L287.176 140.757C294.647 122.08 299.579 108.001 301.939 98.5638C304.301 89.1152 305.484 79.6597 305.484 70.2C305.484 49.7966 299.065 33.2869 286.134 20.8295C273.225 7.92532 256.733 1.5 236.784 1.5C216.83 1.5 200.113 7.92768 186.743 20.8195C173.805 33.2781 167.384 49.7912 167.384 70.2C167.384 84.8974 170.705 97.5558 177.418 108.105C183.896 118.285 192.837 125.999 204.2 131.242L174.436 240.606L173.921 242.5H175.884H245.184H246.197L246.575 241.56L287.175 140.76Z" stroke="url(#paint0_linear)" stroke-opacity="0.5" stroke-width="3"/>
<defs>
<linearGradient id="paint0_linear" x1="153.5" y1="262" x2="-34" y2="57" gradientUnits="userSpaceOnUse">
<stop stop-color="#FC5E08"/>
<stop offset="1" stop-color="#FBDF9B"/>
</linearGradient>
</defs>
</svg>
