<svg width="1811" height="1881" viewBox="0 0 1811 1881" fill="none" xmlns="http://www.w3.org/2000/svg">
<circle cx="903.148" cy="900.796" r="372.108" transform="rotate(18.6103 903.148 900.796)" stroke="#FC5E08" stroke-width="2"/>
<circle cx="905.464" cy="879.465" r="425.423" transform="rotate(18.6103 905.464 879.465)" stroke="url(#paint0_linear)"/>
<circle cx="905.973" cy="904.7" r="457.834" transform="rotate(78.6103 905.973 904.7)" stroke="url(#paint1_linear)"/>
<path d="M1063.76 435.386C1323.38 522.81 1462.97 804.143 1375.55 1063.76C1288.12 1323.38 1006.79 1462.97 747.172 1375.55C487.553 1288.13 347.961 1006.79 435.385 747.174C522.808 487.555 804.142 347.963 1063.76 435.386Z" stroke="url(#paint2_linear)" stroke-opacity="0.8"/>
<circle cx="905.466" cy="905.466" r="539.543" transform="rotate(-56.3897 905.466 905.466)" stroke="url(#paint3_linear)" stroke-opacity="0.5"/>
<circle cx="905.466" cy="905.466" r="583.085" transform="rotate(93.6103 905.466 905.466)" stroke="url(#paint4_linear)" stroke-opacity="0.3"/>
<path d="M289.402 1017.33C289.462 1014.2 289.039 1010.78 287.637 1007.61C285.55 1002.9 281.373 998.928 273.933 997.268L273.91 997.263L273.888 997.258C263.317 995.235 257.282 991.956 253.388 988.743L250.046 985.986L250.967 990.219L252.814 998.709L252.841 998.835L252.89 998.954C254.288 1002.4 261.866 1018.67 280.832 1021.18C283.122 1021.49 285.09 1022.05 287.166 1022.64L287.478 1022.73L287.354 1023.03L288.522 1023.68C296.381 1028.07 298.555 1037.9 295.617 1047.46C295.805 1044.02 295.468 1040.12 293.909 1036.56C291.829 1031.8 287.646 1027.82 280.168 1026.32C269.499 1023.96 263.489 1021.28 260.033 1017.92L256.54 1014.52L257.518 1019.29L259.32 1028.1L259.355 1028.27L259.428 1028.42C261.337 1032.56 269.105 1047.54 287.13 1049.92C289.734 1050.27 291.629 1050.83 293.158 1051.59L295.017 1052.52L295.033 1052.41L295.112 1052.46C300.401 1055.46 303.046 1060.78 303.358 1066.85C303.495 1069.52 303.18 1072.3 302.445 1075.06C302.469 1074.21 302.458 1073.34 302.403 1072.46C302.182 1068.94 301.24 1065.19 298.851 1062C296.442 1058.79 292.669 1056.3 287.064 1055.14L287.054 1055.14L287.044 1055.14C276.791 1053.16 271.052 1049.92 267.145 1046.7L263.665 1043.83L264.733 1048.21L273.984 1086.18C273.985 1086.19 273.986 1086.2 273.988 1086.21C274.294 1087.87 278.048 1108.27 256.243 1122.45C250.347 1126.26 244.809 1127.42 240.586 1126.41C236.471 1125.41 233.297 1122.28 232.12 1116.73C230.927 1111.1 232.078 1104.39 235.076 1098.07C238.069 1091.76 242.838 1085.99 248.684 1082.21L248.69 1082.2C254.817 1078.2 261.176 1077.66 265.594 1079.38L268.209 1080.39L267.602 1077.65L244.557 973.771L249.215 970.668C250.046 972.821 251.694 976.291 254.51 979.811C258.636 984.967 265.305 990.265 275.575 991.626C283.458 992.671 287.756 996.954 289.54 1002.48C290.955 1006.87 290.812 1012.14 289.402 1017.33Z" stroke="url(#paint5_linear)" stroke-opacity="0.5" stroke-width="3"/>
<mask id="path-8-inside-1" fill="white">
<path d="M646.254 1585.73L647.717 1590.48L648.393 1594.14C648.699 1595.34 648.886 1597.09 649.253 1598.53C649.379 1600.03 649.807 1601.71 649.933 1603.22C650.185 1606.22 650.437 1609.23 650.449 1612.29C650.472 1618.43 650.015 1624.68 648.953 1630.58C646.953 1642.86 642.784 1654.66 637.286 1665.27C630.89 1677.38 622.624 1688.18 613.146 1697.25C615.934 1702.16 618.722 1707.08 621.449 1711.76C630.845 1728.56 639.877 1744.93 646.504 1761.92C648.085 1766.12 649.728 1770.57 651.069 1774.83C651.374 1776.03 651.619 1776.99 651.924 1778.19L652.719 1781.32C653.089 1783.78 653.639 1785.94 653.769 1788.47C654.587 1797.72 653.66 1807.17 651.045 1816.02C649.617 1820.48 647.826 1824.51 645.734 1828.37C643.642 1832.23 640.946 1835.73 638.189 1838.99L635.97 1841.34C632.251 1844.85 630.811 1846.24 629.25 1847.14C626.008 1849.5 622.884 1851.32 619.459 1852.96C618.737 1853.14 618.317 1853.51 617.595 1853.69C614.831 1854.91 611.944 1855.64 609.057 1856.37C605.689 1857.23 602.137 1857.37 598.765 1857.2C592.021 1856.87 585.33 1854.74 579.839 1851.27C574.347 1847.81 569.753 1842.84 566.483 1838.04C564.666 1834.92 563.271 1832.46 561.996 1829.46C560.781 1826.7 559.746 1823.64 559.013 1820.76C555.777 1809.05 556.509 1795.81 559.839 1784.74C564 1770.89 571.557 1763.34 579.786 1758.43C580.687 1757.94 581.588 1757.46 582.489 1756.97C593.609 1752.35 605.49 1757.77 610.291 1769.6C615.577 1782.32 610.221 1798.52 598.689 1805.55C597.547 1806.09 596.646 1806.58 595.504 1807.13C591.777 1808.59 588.046 1809.02 584.552 1808.38C583.956 1810.06 583.601 1811.69 583.368 1813.79C583.254 1815.36 583.201 1817.16 583.388 1818.91C583.575 1820.65 584.125 1822.81 584.251 1824.31L585.286 1827.38C585.531 1828.34 586.016 1829.24 586.501 1830.14C587.471 1831.94 588.502 1833.98 589.652 1835.47C592.314 1838.89 596.056 1841.52 600.696 1842.64C602.927 1843.35 605.516 1843.46 608.044 1843.33C610.572 1843.2 613.52 1842.7 616.105 1841.79C616.827 1841.61 617.308 1841.49 617.969 1841.06C620.073 1840.27 622.295 1838.94 624.277 1837.67C625.598 1836.82 626.919 1835.97 628.179 1834.88L631.899 1831.38C636.817 1826.55 640.826 1820.15 643.327 1812.87C645.828 1805.58 647.061 1797.34 646.487 1789.04C646.479 1787 646.231 1785.01 645.681 1782.85L645.127 1779.67C644.882 1778.7 644.638 1777.74 644.332 1776.54C643.293 1772.46 641.953 1768.19 640.371 1763.99C637.27 1755.83 633.385 1747.61 629.261 1739.45C625.136 1731.29 620.469 1723.01 615.801 1714.73C613.074 1710.05 610.347 1705.38 607.38 1700.76C601.32 1706.14 594.595 1710.92 587.626 1714.74C583.602 1717.04 579.695 1718.8 575.548 1720.62C569.056 1723.3 562.381 1725.25 555.824 1726.67L551.674 1727.47L547.461 1728.03L545.476 1728.27L543.188 1728.34L539.156 1728.6C536.326 1728.56 533.015 1728.63 530.365 1728.28L526.149 1727.82L521.811 1726.88C510.423 1724.4 499.325 1719.04 490.022 1710.66C485.37 1706.47 480.898 1701.98 477.205 1696.53C475.269 1693.95 473.512 1691.07 471.816 1688.43C470.3 1685.49 468.543 1682.61 467.267 1679.61C461.382 1667.55 457.417 1653.98 455.197 1640.22C452.916 1626.22 452.079 1611.85 452.986 1597.3C453.654 1582.8 455.585 1568.24 458.902 1554.1C460.441 1547.05 462.46 1539.89 464.541 1532.96C466.683 1526.28 468.645 1519.9 470.787 1513.21C474.296 1501.83 478.045 1490.39 481.252 1478.83C471.726 1459.51 462.319 1439.65 453.511 1419.12C443.489 1395.84 433.826 1371.95 426.381 1345.7C424.67 1338.97 422.958 1332.25 421.908 1325.1C420.857 1317.94 419.986 1310.49 421.696 1301.1C422.108 1298.7 422.761 1296.23 423.895 1293.64C425.029 1291.05 426.884 1288.27 429.344 1285.86C429.764 1285.49 431.024 1284.41 431.444 1284.04C432.765 1283.2 432.765 1283.2 433.246 1283.07C434.147 1282.59 434.808 1282.16 435.53 1281.98C436.011 1281.86 436.492 1281.74 436.912 1281.37C439.257 1280.52 441.724 1280.15 443.771 1280.14C448.105 1280.06 451.901 1280.89 455.277 1282.07C458.653 1283.26 461.849 1284.75 464.866 1286.54C476.934 1293.7 486.424 1303.82 494.353 1314.85C502.583 1326.06 509.011 1338.24 514.42 1351.44L516.486 1356.55L518.189 1361.23C519.408 1365.01 520.504 1368.31 521.421 1371.92C523.255 1379.13 524.97 1386.87 525.662 1394.63C527.587 1410.25 526.263 1426.2 524.153 1441.06C520.687 1463.68 514.987 1484.57 508.382 1504.93C515.299 1519.03 522.334 1532.59 529.37 1546.15C530.45 1545.36 531.229 1544.39 532.31 1543.61C535.911 1540.64 540.115 1538.04 544.38 1535.68C545.942 1534.77 547.565 1534.1 549.188 1533.43C551.953 1532.21 554.779 1531.24 557.666 1530.51C576.129 1525.55 595.769 1529.25 612.305 1539.88C616.529 1542.39 620.455 1545.74 624.14 1549.15C627.826 1552.56 631.454 1556.76 634.36 1561.13C637.507 1565.45 640.296 1570.37 642.423 1575.71C644.306 1580.09 645.28 1582.91 646.254 1585.73ZM584.28 1705.61C590.829 1702.16 596.832 1697.56 602.17 1692.36C601.808 1691.95 601.685 1691.46 601.261 1690.8C596.052 1682.41 590.781 1673.77 585.209 1664.96C574.366 1647.51 563.038 1629.16 551.829 1610.27C546.558 1601.63 541.406 1592.45 536.013 1583.34C528.644 1592.63 524.287 1602.69 522.218 1612.68C520.149 1622.67 520.245 1632.11 521.72 1639.93C523.256 1647.98 525.868 1654.22 528.836 1658.84C531.803 1663.45 535.244 1665.9 537.658 1667.34C538.865 1668.05 540.01 1668.53 540.553 1668.65C541.156 1669 541.698 1669.12 541.698 1669.12C541.698 1669.12 541.217 1669.24 540.495 1669.43C540.014 1669.55 539.774 1669.61 539.052 1669.79C538.51 1669.68 537.788 1669.86 537.005 1669.8C533.935 1669.82 529.176 1669.24 523.624 1665.53C518.193 1662.31 512.51 1656.08 508.141 1646.96C503.772 1637.84 500.475 1625.89 500.963 1611.7C501.149 1597.32 505.421 1580.89 514.634 1565.75C515.711 1563.95 517.028 1562.08 518.346 1560.21L520.442 1557.37C520.622 1557.07 521.042 1556.71 521.221 1556.4C515.099 1545.43 509.217 1534.39 503.213 1522.87C502.915 1523.71 502.617 1524.56 502.32 1525.4C500.117 1531.84 497.914 1538.29 495.47 1544.79C493.386 1550.69 491.362 1556.84 489.82 1562.86C486.494 1574.96 483.712 1587.18 481.891 1599.15C478.551 1623.28 478.946 1647.99 485.891 1669.25C486.563 1671.89 487.716 1674.41 488.629 1676.99C489.783 1679.51 490.936 1682.03 492.269 1684.25C494.755 1688.99 497.662 1693.37 501.168 1697.08C504.494 1701.1 508.359 1704.21 512.403 1707.01C516.448 1709.82 521.092 1711.97 525.552 1713.39C530.314 1714.99 535.072 1715.57 539.831 1716.15L543.924 1716.13L545.731 1716.19L547.716 1715.94L551.508 1715.74L555.239 1715.3C560.173 1714.56 565.286 1713.51 570.155 1711.51C571.839 1711.08 573.462 1710.41 574.845 1709.8C578.213 1708.95 581.397 1707.37 584.28 1705.61ZM624.378 1658.83C631.77 1639.56 631.211 1619.23 625.676 1604.53L624.278 1601.05L624.217 1600.81L623.793 1600.15L623.186 1598.77C622.216 1596.97 621.547 1595.35 620.398 1593.85C618.339 1590.79 616.04 1587.79 613.561 1585.1C608.665 1579.95 602.99 1575.76 597.319 1572.6C585.736 1566.34 572.966 1564.47 562.499 1566.62C559.853 1567.3 557.447 1567.91 554.923 1569.06C552.399 1570.22 550.115 1571.31 547.713 1572.94C546.571 1573.49 545.552 1574.52 544.471 1575.3C549.566 1585.26 554.78 1594.68 560.054 1604.34C576.24 1633.73 591.999 1661.44 607.15 1687.77C614.401 1679.02 620.384 1669.31 624.378 1658.83ZM452.389 1377.46C456.469 1389.46 461.029 1401.35 465.769 1412.93C472.453 1429.14 479.557 1444.98 486.661 1460.83C488.799 1453.12 490.517 1445.78 492.174 1438.19C494.655 1425.79 496.174 1413.64 495.589 1402.28C495.386 1396.45 494.462 1390.8 493.476 1384.91C492.983 1381.97 492.009 1379.14 491.276 1376.26L489.813 1371.52L488.472 1367.25C484.756 1355.66 480.317 1344.26 474.619 1333.94C468.921 1323.62 462.203 1314.33 454.171 1307.93C450.306 1304.83 445.663 1302.68 442.291 1302.52C441.508 1302.46 440.725 1302.4 440.244 1302.52C440.003 1302.59 439.763 1302.65 439.763 1302.65L439.522 1302.71C439.342 1303.01 438.804 1303.91 438.449 1305.54C437.502 1309.87 437.587 1316.25 438.332 1322.2C439.138 1328.39 440.185 1334.52 441.534 1340.82C444.41 1353.14 448.31 1365.45 452.389 1377.46Z"/>
</mask>
<path d="M646.254 1585.73L647.717 1590.48L648.393 1594.14C648.699 1595.34 648.886 1597.09 649.253 1598.53C649.379 1600.03 649.807 1601.71 649.933 1603.22C650.185 1606.22 650.437 1609.23 650.449 1612.29C650.472 1618.43 650.015 1624.68 648.953 1630.58C646.953 1642.86 642.784 1654.66 637.286 1665.27C630.89 1677.38 622.624 1688.18 613.146 1697.25C615.934 1702.16 618.722 1707.08 621.449 1711.76C630.845 1728.56 639.877 1744.93 646.504 1761.92C648.085 1766.12 649.728 1770.57 651.069 1774.83C651.374 1776.03 651.619 1776.99 651.924 1778.19L652.719 1781.32C653.089 1783.78 653.639 1785.94 653.769 1788.47C654.587 1797.72 653.66 1807.17 651.045 1816.02C649.617 1820.48 647.826 1824.51 645.734 1828.37C643.642 1832.23 640.946 1835.73 638.189 1838.99L635.97 1841.34C632.251 1844.85 630.811 1846.24 629.25 1847.14C626.008 1849.5 622.884 1851.32 619.459 1852.96C618.737 1853.14 618.317 1853.51 617.595 1853.69C614.831 1854.91 611.944 1855.64 609.057 1856.37C605.689 1857.23 602.137 1857.37 598.765 1857.2C592.021 1856.87 585.33 1854.74 579.839 1851.27C574.347 1847.81 569.753 1842.84 566.483 1838.04C564.666 1834.92 563.271 1832.46 561.996 1829.46C560.781 1826.7 559.746 1823.64 559.013 1820.76C555.777 1809.05 556.509 1795.81 559.839 1784.74C564 1770.89 571.557 1763.34 579.786 1758.43C580.687 1757.94 581.588 1757.46 582.489 1756.97C593.609 1752.35 605.49 1757.77 610.291 1769.6C615.577 1782.32 610.221 1798.52 598.689 1805.55C597.547 1806.09 596.646 1806.58 595.504 1807.13C591.777 1808.59 588.046 1809.02 584.552 1808.38C583.956 1810.06 583.601 1811.69 583.368 1813.79C583.254 1815.36 583.201 1817.16 583.388 1818.91C583.575 1820.65 584.125 1822.81 584.251 1824.31L585.286 1827.38C585.531 1828.34 586.016 1829.24 586.501 1830.14C587.471 1831.94 588.502 1833.98 589.652 1835.47C592.314 1838.89 596.056 1841.52 600.696 1842.64C602.927 1843.35 605.516 1843.46 608.044 1843.33C610.572 1843.2 613.52 1842.7 616.105 1841.79C616.827 1841.61 617.308 1841.49 617.969 1841.06C620.073 1840.27 622.295 1838.94 624.277 1837.67C625.598 1836.82 626.919 1835.97 628.179 1834.88L631.899 1831.38C636.817 1826.55 640.826 1820.15 643.327 1812.87C645.828 1805.58 647.061 1797.34 646.487 1789.04C646.479 1787 646.231 1785.01 645.681 1782.85L645.127 1779.67C644.882 1778.7 644.638 1777.74 644.332 1776.54C643.293 1772.46 641.953 1768.19 640.371 1763.99C637.27 1755.83 633.385 1747.61 629.261 1739.45C625.136 1731.29 620.469 1723.01 615.801 1714.73C613.074 1710.05 610.347 1705.38 607.38 1700.76C601.32 1706.14 594.595 1710.92 587.626 1714.74C583.602 1717.04 579.695 1718.8 575.548 1720.62C569.056 1723.3 562.381 1725.25 555.824 1726.67L551.674 1727.47L547.461 1728.03L545.476 1728.27L543.188 1728.34L539.156 1728.6C536.326 1728.56 533.015 1728.63 530.365 1728.28L526.149 1727.82L521.811 1726.88C510.423 1724.4 499.325 1719.04 490.022 1710.66C485.37 1706.47 480.898 1701.98 477.205 1696.53C475.269 1693.95 473.512 1691.07 471.816 1688.43C470.3 1685.49 468.543 1682.61 467.267 1679.61C461.382 1667.55 457.417 1653.98 455.197 1640.22C452.916 1626.22 452.079 1611.85 452.986 1597.3C453.654 1582.8 455.585 1568.24 458.902 1554.1C460.441 1547.05 462.46 1539.89 464.541 1532.96C466.683 1526.28 468.645 1519.9 470.787 1513.21C474.296 1501.83 478.045 1490.39 481.252 1478.83C471.726 1459.51 462.319 1439.65 453.511 1419.12C443.489 1395.84 433.826 1371.95 426.381 1345.7C424.67 1338.97 422.958 1332.25 421.908 1325.1C420.857 1317.94 419.986 1310.49 421.696 1301.1C422.108 1298.7 422.761 1296.23 423.895 1293.64C425.029 1291.05 426.884 1288.27 429.344 1285.86C429.764 1285.49 431.024 1284.41 431.444 1284.04C432.765 1283.2 432.765 1283.2 433.246 1283.07C434.147 1282.59 434.808 1282.16 435.53 1281.98C436.011 1281.86 436.492 1281.74 436.912 1281.37C439.257 1280.52 441.724 1280.15 443.771 1280.14C448.105 1280.06 451.901 1280.89 455.277 1282.07C458.653 1283.26 461.849 1284.75 464.866 1286.54C476.934 1293.7 486.424 1303.82 494.353 1314.85C502.583 1326.06 509.011 1338.24 514.42 1351.44L516.486 1356.55L518.189 1361.23C519.408 1365.01 520.504 1368.31 521.421 1371.92C523.255 1379.13 524.97 1386.87 525.662 1394.63C527.587 1410.25 526.263 1426.2 524.153 1441.06C520.687 1463.68 514.987 1484.57 508.382 1504.93C515.299 1519.03 522.334 1532.59 529.37 1546.15C530.45 1545.36 531.229 1544.39 532.31 1543.61C535.911 1540.64 540.115 1538.04 544.38 1535.68C545.942 1534.77 547.565 1534.1 549.188 1533.43C551.953 1532.21 554.779 1531.24 557.666 1530.51C576.129 1525.55 595.769 1529.25 612.305 1539.88C616.529 1542.39 620.455 1545.74 624.14 1549.15C627.826 1552.56 631.454 1556.76 634.36 1561.13C637.507 1565.45 640.296 1570.37 642.423 1575.71C644.306 1580.09 645.28 1582.91 646.254 1585.73ZM584.28 1705.61C590.829 1702.16 596.832 1697.56 602.17 1692.36C601.808 1691.95 601.685 1691.46 601.261 1690.8C596.052 1682.41 590.781 1673.77 585.209 1664.96C574.366 1647.51 563.038 1629.16 551.829 1610.27C546.558 1601.63 541.406 1592.45 536.013 1583.34C528.644 1592.63 524.287 1602.69 522.218 1612.68C520.149 1622.67 520.245 1632.11 521.72 1639.93C523.256 1647.98 525.868 1654.22 528.836 1658.84C531.803 1663.45 535.244 1665.9 537.658 1667.34C538.865 1668.05 540.01 1668.53 540.553 1668.65C541.156 1669 541.698 1669.12 541.698 1669.12C541.698 1669.12 541.217 1669.24 540.495 1669.43C540.014 1669.55 539.774 1669.61 539.052 1669.79C538.51 1669.68 537.788 1669.86 537.005 1669.8C533.935 1669.82 529.176 1669.24 523.624 1665.53C518.193 1662.31 512.51 1656.08 508.141 1646.96C503.772 1637.84 500.475 1625.89 500.963 1611.7C501.149 1597.32 505.421 1580.89 514.634 1565.75C515.711 1563.95 517.028 1562.08 518.346 1560.21L520.442 1557.37C520.622 1557.07 521.042 1556.71 521.221 1556.4C515.099 1545.43 509.217 1534.39 503.213 1522.87C502.915 1523.71 502.617 1524.56 502.32 1525.4C500.117 1531.84 497.914 1538.29 495.47 1544.79C493.386 1550.69 491.362 1556.84 489.82 1562.86C486.494 1574.96 483.712 1587.18 481.891 1599.15C478.551 1623.28 478.946 1647.99 485.891 1669.25C486.563 1671.89 487.716 1674.41 488.629 1676.99C489.783 1679.51 490.936 1682.03 492.269 1684.25C494.755 1688.99 497.662 1693.37 501.168 1697.08C504.494 1701.1 508.359 1704.21 512.403 1707.01C516.448 1709.82 521.092 1711.97 525.552 1713.39C530.314 1714.99 535.072 1715.57 539.831 1716.15L543.924 1716.13L545.731 1716.19L547.716 1715.94L551.508 1715.74L555.239 1715.3C560.173 1714.56 565.286 1713.51 570.155 1711.51C571.839 1711.08 573.462 1710.41 574.845 1709.8C578.213 1708.95 581.397 1707.37 584.28 1705.61ZM624.378 1658.83C631.77 1639.56 631.211 1619.23 625.676 1604.53L624.278 1601.05L624.217 1600.81L623.793 1600.15L623.186 1598.77C622.216 1596.97 621.547 1595.35 620.398 1593.85C618.339 1590.79 616.04 1587.79 613.561 1585.1C608.665 1579.95 602.99 1575.76 597.319 1572.6C585.736 1566.34 572.966 1564.47 562.499 1566.62C559.853 1567.3 557.447 1567.91 554.923 1569.06C552.399 1570.22 550.115 1571.31 547.713 1572.94C546.571 1573.49 545.552 1574.52 544.471 1575.3C549.566 1585.26 554.78 1594.68 560.054 1604.34C576.24 1633.73 591.999 1661.44 607.15 1687.77C614.401 1679.02 620.384 1669.31 624.378 1658.83ZM452.389 1377.46C456.469 1389.46 461.029 1401.35 465.769 1412.93C472.453 1429.14 479.557 1444.98 486.661 1460.83C488.799 1453.12 490.517 1445.78 492.174 1438.19C494.655 1425.79 496.174 1413.64 495.589 1402.28C495.386 1396.45 494.462 1390.8 493.476 1384.91C492.983 1381.97 492.009 1379.14 491.276 1376.26L489.813 1371.52L488.472 1367.25C484.756 1355.66 480.317 1344.26 474.619 1333.94C468.921 1323.62 462.203 1314.33 454.171 1307.93C450.306 1304.83 445.663 1302.68 442.291 1302.52C441.508 1302.46 440.725 1302.4 440.244 1302.52C440.003 1302.59 439.763 1302.65 439.763 1302.65L439.522 1302.71C439.342 1303.01 438.804 1303.91 438.449 1305.54C437.502 1309.87 437.587 1316.25 438.332 1322.2C439.138 1328.39 440.185 1334.52 441.534 1340.82C444.41 1353.14 448.31 1365.45 452.389 1377.46Z" stroke="url(#paint6_linear)" stroke-opacity="0.5" stroke-width="6" mask="url(#path-8-inside-1)"/>
<path d="M1317.61 1464.2H1320.27C1320.25 1464.8 1320.24 1465.53 1320.27 1466.39C1320.33 1468.7 1320.62 1471.9 1321.46 1475.57C1323.13 1482.89 1327 1492.12 1335.66 1499.73C1343.38 1506.62 1345.3 1514.67 1343.65 1521.75C1342.8 1525.41 1340.98 1528.85 1338.45 1531.77C1338.88 1530.98 1339.27 1530.16 1339.63 1529.3C1341.04 1525.93 1341.87 1521.95 1341.16 1517.63C1340.45 1513.31 1338.22 1508.77 1333.72 1504.28C1325.11 1495.69 1321.5 1489.14 1319.59 1483.88L1317.83 1479.07L1316.71 1484.07L1294.01 1585.47C1294 1585.5 1293.98 1585.54 1293.97 1585.59C1292.95 1588.33 1285.65 1608.05 1262.02 1607.59L1262.01 1607.59H1261.99C1260.72 1607.59 1259.62 1607.59 1258.54 1607.37L1258.5 1607.36L1258.46 1607.36C1252.63 1606.53 1248.08 1604.06 1245.31 1600.58C1242.56 1597.14 1241.45 1592.57 1242.72 1587.25L1242.73 1587.24C1245.54 1575.3 1258.82 1565.71 1272.45 1565.95L1272.47 1565.95H1272.48C1273.53 1565.95 1274.58 1565.96 1275.36 1566.16L1275.43 1566.17L1275.49 1566.18C1281.39 1567.12 1286.02 1569.93 1289.02 1573.84L1290.94 1576.35L1291.67 1573.28L1317.61 1464.2Z" stroke="url(#paint7_linear)" stroke-opacity="0.5" stroke-width="3"/>
<path d="M1237.95 1737.52L1238.84 1737.02C1239 1737.3 1239.17 1737.62 1239.38 1737.96C1240.21 1739.37 1241.49 1741.24 1243.26 1743.21C1246.8 1747.15 1252.35 1751.52 1260.31 1753.25C1267.18 1754.79 1270.93 1758.92 1272.27 1763.61C1272.58 1764.7 1272.77 1765.83 1272.83 1766.97C1272.35 1765.12 1271.52 1763.26 1270.16 1761.55C1268.2 1759.07 1265.22 1757.02 1260.89 1755.79C1252.8 1753.49 1248.45 1750.75 1245.57 1748.25L1241.7 1744.9L1243.15 1749.81L1263.62 1819.13C1263.62 1819.15 1263.62 1819.17 1263.63 1819.19C1263.94 1821.21 1266.11 1835.35 1251.87 1842.91L1251.86 1842.91L1251.85 1842.92C1251.07 1843.35 1250.44 1843.7 1249.76 1843.92L1249.72 1843.93L1249.68 1843.95C1245.94 1845.38 1242.46 1845.4 1239.73 1844.27C1237.03 1843.16 1234.9 1840.88 1233.91 1837.34L1233.91 1837.33C1231.65 1829.35 1236.36 1819.23 1244.57 1814.86L1244.58 1814.85L1244.59 1814.84C1245.24 1814.48 1245.83 1814.16 1246.31 1814.03L1246.37 1814.02L1246.43 1814C1250.24 1812.61 1253.89 1812.76 1256.91 1814.07L1259.81 1815.33L1258.96 1812.29L1237.95 1737.52Z" stroke="url(#paint8_linear)" stroke-opacity="0.5" stroke-width="3"/>
<defs>
<linearGradient id="paint0_linear" x1="905.464" y1="453.542" x2="905.464" y2="1305.39" gradientUnits="userSpaceOnUse">
<stop stop-color="#FC5E08"/>
<stop offset="1" stop-color="#FBDF9B"/>
</linearGradient>
<linearGradient id="paint1_linear" x1="905.973" y1="446.366" x2="905.973" y2="1363.03" gradientUnits="userSpaceOnUse">
<stop stop-color="#FC5E08"/>
<stop offset="1" stop-color="#FBDF9B"/>
</linearGradient>
<linearGradient id="paint2_linear" x1="434.911" y1="747.014" x2="1376.02" y2="1063.92" gradientUnits="userSpaceOnUse">
<stop stop-color="#FC5E08"/>
<stop offset="1" stop-color="#FBDF9B"/>
</linearGradient>
<linearGradient id="paint3_linear" x1="905.466" y1="365.423" x2="905.466" y2="1445.51" gradientUnits="userSpaceOnUse">
<stop stop-color="#FC5E08"/>
<stop offset="1" stop-color="#FBDF9B"/>
</linearGradient>
<linearGradient id="paint4_linear" x1="905.466" y1="321.88" x2="905.466" y2="1489.05" gradientUnits="userSpaceOnUse">
<stop stop-color="#FC5E08"/>
<stop offset="1" stop-color="#FBDF9B"/>
</linearGradient>
<linearGradient id="paint5_linear" x1="287.464" y1="980.311" x2="240.248" y2="1127.9" gradientUnits="userSpaceOnUse">
<stop/>
<stop offset="0.0001" stop-color="#FC5E08"/>
<stop offset="1" stop-color="#FBDF9B"/>
</linearGradient>
<linearGradient id="paint6_linear" x1="464.363" y1="1274.29" x2="612.233" y2="1855.57" gradientUnits="userSpaceOnUse">
<stop stop-color="#FC5E08"/>
<stop offset="1" stop-color="#FBDF9B"/>
</linearGradient>
<linearGradient id="paint7_linear" x1="1213.7" y1="1608.7" x2="1391.7" y2="1512.7" gradientUnits="userSpaceOnUse">
<stop stop-color="#FC5E08"/>
<stop offset="1" stop-color="#FBDF9B"/>
</linearGradient>
<linearGradient id="paint8_linear" x1="1223.07" y1="1860.32" x2="1298.88" y2="1741.74" gradientUnits="userSpaceOnUse">
<stop stop-color="#FC5E08"/>
<stop offset="1" stop-color="#FBDF9B"/>
</linearGradient>
</defs>
</svg>
