<svg width="512" height="213" viewBox="0 0 512 213" fill="none" xmlns="http://www.w3.org/2000/svg">
<path d="M7.74658 4.49345H21.0766V50.6141H49.9583V61.3322H7.74658V4.49345Z" fill="white"/>
<path d="M102.004 50.7765V61.3322H57.4063V4.49345H100.935V15.0492H70.654V27.3914H97.3963V37.6223H70.654V50.7765H102.004Z" fill="white"/>
<path d="M124.542 15.2116H106.11V4.49345H156.303V15.2116H137.872V61.3322H124.542V15.2116Z" fill="white"/>
<path d="M169.516 0.433533C171.82 0.433533 173.713 1.16432 175.194 2.62589C176.675 4.03332 177.416 5.90088 177.416 8.22857C177.416 9.31121 177.279 10.3939 177.004 11.4765C176.73 12.5591 176.154 14.1831 175.276 16.3484L170.504 28.0409H162.358L165.896 15.2116C164.524 14.6162 163.455 13.723 162.687 12.5321C161.919 11.3412 161.535 9.90667 161.535 8.22857C161.535 5.90088 162.275 4.03332 163.757 2.62589C165.292 1.16432 167.212 0.433533 169.516 0.433533Z" fill="white"/>
<path d="M206.749 62.3066C202.196 62.3066 197.78 61.7112 193.501 60.5203C189.277 59.2752 185.876 57.6783 183.298 55.7296L187.823 45.8234C190.292 47.6097 193.227 49.0442 196.628 50.1269C200.029 51.2095 203.43 51.7508 206.831 51.7508C210.616 51.7508 213.414 51.2095 215.224 50.1269C217.034 48.9901 217.939 47.5015 217.939 45.661C217.939 44.3077 217.391 43.198 216.294 42.3318C215.251 41.4116 213.88 40.6808 212.179 40.1395C210.534 39.5982 208.285 39.0027 205.432 38.3531C201.044 37.3246 197.451 36.2961 194.653 35.2676C191.855 34.2391 189.442 32.588 187.412 30.3145C185.437 28.0409 184.45 25.0095 184.45 21.2203C184.45 17.9182 185.355 14.941 187.165 12.2885C188.975 9.58187 191.691 7.44365 195.311 5.87382C198.987 4.30399 203.457 3.51907 208.723 3.51907C212.399 3.51907 215.992 3.95213 219.503 4.81824C223.013 5.68436 226.085 6.9294 228.718 8.55336L224.604 18.5407C219.283 15.5635 213.962 14.0748 208.641 14.0748C204.911 14.0748 202.141 14.6703 200.33 15.8612C198.575 17.0521 197.697 18.6219 197.697 20.5707C197.697 22.5195 198.712 23.981 200.742 24.9554C202.826 25.8757 205.981 26.7959 210.205 27.7162C214.593 28.7447 218.186 29.7732 220.984 30.8017C223.781 31.8302 226.168 33.4542 228.143 35.6736C230.172 37.893 231.187 40.8973 231.187 44.6866C231.187 47.9345 230.254 50.9118 228.389 53.6184C226.579 56.2709 223.836 58.382 220.161 59.9519C216.486 61.5217 212.015 62.3066 206.749 62.3066Z" fill="white"/>
<path d="M316.014 61.3322L315.931 27.229L298.981 55.3236H292.974L276.106 27.9597V61.3322H263.599V4.49345H274.625L296.183 39.8147L317.412 4.49345H328.356L328.521 61.3322H316.014Z" fill="white"/>
<path d="M380.119 49.1525H353.377L348.275 61.3322H334.616L360.289 4.49345H373.454L399.209 61.3322H385.221L380.119 49.1525ZM375.923 39.1651L366.789 17.404L357.656 39.1651H375.923Z" fill="white"/>
<path d="M426.167 39.0027L418.433 46.9601V61.3322H405.185V4.49345H418.433V31.0453L443.941 4.49345H458.752L434.89 29.8273L460.151 61.3322H444.599L426.167 39.0027Z" fill="white"/>
<path d="M510.692 50.7765V61.3322H466.094V4.49345H509.623V15.0492H479.342V27.3914H506.085V37.6223H479.342V50.7765H510.692Z" fill="white"/>
<path d="M23.3452 129.09C19.9277 129.09 16.6131 128.643 13.4014 127.747C10.231 126.811 7.67814 125.611 5.74292 124.146L9.13985 116.698C10.9927 118.041 13.1956 119.12 15.7484 119.934C18.3013 120.748 20.8541 121.155 23.4069 121.155C26.248 121.155 28.3479 120.748 29.7067 119.934C31.0655 119.079 31.7449 117.96 31.7449 116.576C31.7449 115.559 31.3331 114.725 30.5096 114.074C29.7273 113.382 28.6979 112.832 27.4215 112.425C26.1862 112.019 24.4981 111.571 22.357 111.083C19.063 110.309 16.366 109.536 14.2661 108.763C12.1662 107.99 10.3545 106.748 8.83104 105.039C7.34874 103.33 6.60759 101.051 6.60759 98.2025C6.60759 95.7201 7.28698 93.4818 8.64575 91.4878C10.0045 89.453 12.0427 87.8455 14.7602 86.6654C17.5189 85.4852 20.8747 84.8951 24.8275 84.8951C27.5862 84.8951 30.2831 85.2207 32.9183 85.8718C35.5535 86.523 37.8593 87.4589 39.8357 88.6798L36.7476 96.1881C32.7536 93.9498 28.7597 92.8307 24.7657 92.8307C21.9658 92.8307 19.8865 93.2784 18.5277 94.1737C17.2101 95.069 16.5513 96.2491 16.5513 97.7141C16.5513 99.1792 17.3131 100.278 18.8365 101.01C20.4012 101.702 22.7687 102.394 25.9392 103.086C29.2332 103.859 31.9301 104.632 34.0301 105.406C36.13 106.179 37.9211 107.4 39.4034 109.068C40.9269 110.737 41.6886 112.995 41.6886 115.844C41.6886 118.286 40.9886 120.524 39.5887 122.559C38.2299 124.553 36.1712 126.14 33.4124 127.32C30.6537 128.5 27.298 129.09 23.3452 129.09Z" fill="#FC5E08"/>
<path d="M88.1768 85.6277V128.358H78.1713V110.838H58.5309V128.358H48.5254V85.6277H58.5309V102.475H78.1713V85.6277H88.1768Z" fill="#FC5E08"/>
<path d="M98.4057 85.6277H108.411V128.358H98.4057V85.6277Z" fill="#FC5E08"/>
<path d="M158.323 85.6277V128.358H150.108L128.553 102.414V128.358H118.671V85.6277H126.948L148.441 111.571V85.6277H158.323Z" fill="#FC5E08"/>
<path d="M168.552 85.6277H178.557V128.358H168.552V85.6277Z" fill="#FC5E08"/>
<path d="M228.469 85.6277V128.358H220.255L198.7 102.414V128.358H188.818V85.6277H197.094L218.587 111.571V85.6277H228.469Z" fill="#FC5E08"/>
<path d="M267.911 106.321H277.052V123.657C274.705 125.407 271.988 126.75 268.9 127.686C265.812 128.622 262.703 129.09 259.574 129.09C255.085 129.09 251.05 128.154 247.468 126.282C243.886 124.37 241.065 121.745 239.007 118.408C236.989 115.03 235.98 111.225 235.98 106.993C235.98 102.76 236.989 98.9757 239.007 95.6387C241.065 92.261 243.906 89.6361 247.53 87.7642C251.153 85.8515 255.23 84.8951 259.759 84.8951C263.547 84.8951 266.985 85.5259 270.073 86.7875C273.161 88.049 275.755 89.8803 277.855 92.2813L271.432 98.1414C268.344 94.9265 264.617 93.3191 260.253 93.3191C257.494 93.3191 255.044 93.8888 252.903 95.0283C250.762 96.1677 249.095 97.7752 247.9 99.8506C246.706 101.926 246.109 104.307 246.109 106.993C246.109 109.638 246.706 111.998 247.9 114.074C249.095 116.149 250.742 117.777 252.841 118.957C254.983 120.097 257.412 120.666 260.129 120.666C263.012 120.666 265.606 120.056 267.911 118.835V106.321Z" fill="#FC5E08"/>
<path d="M343.18 128.358L343.119 102.72L330.396 123.841H325.887L313.226 103.269V128.358H303.838V85.6277H312.114L328.296 112.181L344.23 85.6277H352.445L352.568 128.358H343.18Z" fill="#FC5E08"/>
<path d="M382.034 129.09C375.858 129.09 371.04 127.401 367.581 124.024C364.164 120.646 362.455 115.824 362.455 109.556V85.6277H372.461V109.19C372.461 116.841 375.672 120.666 382.095 120.666C385.225 120.666 387.613 119.751 389.26 117.919C390.907 116.047 391.73 113.138 391.73 109.19V85.6277H401.612V109.556C401.612 115.824 399.883 120.646 396.424 124.024C393.007 127.401 388.21 129.09 382.034 129.09Z" fill="#FC5E08"/>
<path d="M425.705 129.09C422.288 129.09 418.973 128.643 415.761 127.747C412.591 126.811 410.038 125.611 408.103 124.146L411.5 116.698C413.353 118.041 415.555 119.12 418.108 119.934C420.661 120.748 423.214 121.155 425.767 121.155C428.608 121.155 430.708 120.748 432.067 119.934C433.425 119.079 434.105 117.96 434.105 116.576C434.105 115.559 433.693 114.725 432.869 114.074C432.087 113.382 431.058 112.832 429.781 112.425C428.546 112.019 426.858 111.571 424.717 111.083C421.423 110.309 418.726 109.536 416.626 108.763C414.526 107.99 412.714 106.748 411.191 105.039C409.709 103.33 408.967 101.051 408.967 98.2025C408.967 95.7201 409.647 93.4818 411.006 91.4878C412.364 89.453 414.402 87.8455 417.12 86.6654C419.879 85.4852 423.235 84.8951 427.187 84.8951C429.946 84.8951 432.643 85.2207 435.278 85.8718C437.913 86.523 440.219 87.4589 442.196 88.6798L439.107 96.1881C435.113 93.9498 431.12 92.8307 427.126 92.8307C424.326 92.8307 422.246 93.2784 420.888 94.1737C419.57 95.069 418.911 96.2491 418.911 97.7141C418.911 99.1792 419.673 100.278 421.196 101.01C422.761 101.702 425.129 102.394 428.299 103.086C431.593 103.859 434.29 104.632 436.39 105.406C438.49 106.179 440.281 107.4 441.763 109.068C443.287 110.737 444.048 112.995 444.048 115.844C444.048 118.286 443.348 120.524 441.949 122.559C440.59 124.553 438.531 126.14 435.772 127.32C433.014 128.5 429.658 129.09 425.705 129.09Z" fill="#FC5E08"/>
<path d="M450.885 85.6277H460.891V128.358H450.885V85.6277Z" fill="#FC5E08"/>
<path d="M491.841 129.09C487.436 129.09 483.442 128.154 479.859 126.282C476.318 124.37 473.519 121.745 471.46 118.408C469.442 115.03 468.433 111.225 468.433 106.993C468.433 102.76 469.442 98.9757 471.46 95.6387C473.519 92.261 476.318 89.6361 479.859 87.7642C483.442 85.8515 487.456 84.8951 491.903 84.8951C495.65 84.8951 499.026 85.5463 502.032 86.8485C505.079 88.1508 507.632 90.0227 509.691 92.4645L503.267 98.3246C500.344 94.9876 496.721 93.3191 492.397 93.3191C489.721 93.3191 487.333 93.9091 485.233 95.0893C483.133 96.2288 481.486 97.8362 480.292 99.9117C479.139 101.987 478.562 104.347 478.562 106.993C478.562 109.638 479.139 111.998 480.292 114.074C481.486 116.149 483.133 117.777 485.233 118.957C487.333 120.097 489.721 120.666 492.397 120.666C496.721 120.666 500.344 118.977 503.267 115.6L509.691 121.46C507.632 123.942 505.079 125.835 502.032 127.137C498.985 128.439 495.588 129.09 491.841 129.09Z" fill="#FC5E08"/>
<path d="M19.9258 163.79H0.733398V152.688H52.9985V163.79H33.8061V211.561H19.9258V163.79Z" fill="white"/>
<path d="M88.6757 212.57C82.4496 212.57 76.8232 211.252 71.7967 208.617C66.8272 205.982 62.9145 202.365 60.0584 197.768C57.2595 193.114 55.8601 187.899 55.8601 182.124C55.8601 176.349 57.2595 171.163 60.0584 166.565C62.9145 161.911 66.8272 158.267 71.7967 155.632C76.8232 152.996 82.4496 151.679 88.6757 151.679C94.9018 151.679 100.5 152.996 105.469 155.632C110.439 158.267 114.351 161.911 117.207 166.565C120.063 171.163 121.491 176.349 121.491 182.124C121.491 187.899 120.063 193.114 117.207 197.768C114.351 202.365 110.439 205.982 105.469 208.617C100.5 211.252 94.9018 212.57 88.6757 212.57ZM88.6757 200.964C92.2172 200.964 95.4159 200.179 98.2719 198.609C101.128 196.983 103.356 194.74 104.955 191.88C106.612 189.021 107.44 185.769 107.44 182.124C107.44 178.48 106.612 175.228 104.955 172.368C103.356 169.509 101.128 167.294 98.2719 165.724C95.4159 164.098 92.2172 163.285 88.6757 163.285C85.1343 163.285 81.9355 164.098 79.0795 165.724C76.2235 167.294 73.9672 169.509 72.3107 172.368C70.7114 175.228 69.9117 178.48 69.9117 182.124C69.9117 185.769 70.7114 189.021 72.3107 191.88C73.9672 194.74 76.2235 196.983 79.0795 198.609C81.9355 200.179 85.1343 200.964 88.6757 200.964Z" fill="white"/>
<path d="M172.45 181.199H185.131V205.085C181.875 207.496 178.105 209.346 173.821 210.635C169.537 211.925 165.224 212.57 160.883 212.57C154.657 212.57 149.059 211.28 144.09 208.701C139.12 206.066 135.207 202.449 132.351 197.852C129.552 193.198 128.153 187.955 128.153 182.124C128.153 176.293 129.552 171.079 132.351 166.481C135.207 161.827 139.149 158.211 144.175 155.632C149.202 152.996 154.857 151.679 161.14 151.679C166.395 151.679 171.165 152.548 175.449 154.286C179.733 156.024 183.331 158.547 186.244 161.855L177.334 169.929C173.05 165.5 167.88 163.285 161.825 163.285C157.998 163.285 154.6 164.07 151.629 165.64C148.659 167.21 146.346 169.425 144.689 172.284C143.033 175.144 142.205 178.424 142.205 182.124C142.205 185.769 143.033 189.021 144.689 191.88C146.346 194.74 148.631 196.983 151.544 198.609C154.514 200.179 157.884 200.964 161.654 200.964C165.653 200.964 169.251 200.122 172.45 198.44V181.199Z" fill="white"/>
<path d="M244.463 200.627V211.561H198.024V152.688H243.349V163.622H211.819V176.405H239.665V187.002H211.819V200.627H244.463Z" fill="white"/>
<path d="M267.931 163.79H248.738V152.688H301.003V163.79H281.811V211.561H267.931V163.79Z" fill="white"/>
<path d="M363.478 152.688V211.561H349.598V187.423H322.352V211.561H308.472V152.688H322.352V175.901H349.598V152.688H363.478Z" fill="white"/>
<path d="M424.107 200.627V211.561H377.669V152.688H422.994V163.622H391.463V176.405H419.309V187.002H391.463V200.627H424.107Z" fill="white"/>
<path d="M473.365 211.561L461.798 195.16H461.113H449.032V211.561H435.152V152.688H461.113C466.425 152.688 471.023 153.557 474.907 155.295C478.849 157.033 481.876 159.5 483.989 162.696C486.103 165.892 487.16 169.677 487.16 174.05C487.16 178.424 486.074 182.208 483.904 185.404C481.79 188.544 478.763 190.955 474.822 192.637L488.273 211.561H473.365ZM473.108 174.05C473.108 170.742 472.023 168.219 469.852 166.481C467.682 164.687 464.511 163.79 460.342 163.79H449.032V184.311H460.342C464.511 184.311 467.682 183.414 469.852 181.62C472.023 179.825 473.108 177.302 473.108 174.05Z" fill="white"/>
<path d="M495.501 152.688H511.437L508.781 191.123H498.157L495.501 152.688ZM503.469 212.233C501.127 212.233 499.156 211.504 497.557 210.047C496.015 208.533 495.244 206.711 495.244 204.58C495.244 202.449 496.015 200.683 497.557 199.281C499.099 197.824 501.07 197.095 503.469 197.095C505.868 197.095 507.839 197.824 509.381 199.281C510.923 200.683 511.694 202.449 511.694 204.58C511.694 206.711 510.895 208.533 509.295 210.047C507.753 211.504 505.811 212.233 503.469 212.233Z" fill="white"/>
</svg>
