<svg width="1871" height="1188" viewBox="0 0 1871 1188" fill="none" xmlns="http://www.w3.org/2000/svg">
<rect y="-12" width="1878" height="1198" fill="#474444"/>
<path d="M598.487 327.068C598.293 326.084 598 325.101 597.578 324.148C596.116 320.846 593.189 318.092 588.07 316.95L588.048 316.945L588.026 316.94C581.026 315.6 577.072 313.439 574.544 311.352L571.203 308.596L572.124 312.828L573.358 318.504L573.386 318.63L573.434 318.749C574.381 321.083 579.545 332.196 592.509 333.915C593.881 334.096 595.077 334.42 596.343 334.78L596.304 334.873L597.472 335.526C601.382 337.71 603.124 342.069 602.751 346.871C602.564 345.737 602.252 344.596 601.771 343.499C600.314 340.168 597.382 337.404 592.233 336.368C585.12 334.794 581.222 333.029 579.017 330.883L575.524 327.486L576.501 332.26L577.706 338.143L577.741 338.314L577.814 338.472C579.102 341.259 584.396 351.496 596.719 353.129C598.422 353.355 599.632 353.714 600.591 354.195L602.45 355.127L602.452 355.115C605.428 357.07 606.946 360.284 607.136 363.979C607.157 364.38 607.162 364.786 607.151 365.196C606.789 363.545 606.13 361.894 605.017 360.412C603.324 358.155 600.689 356.433 596.841 355.635L596.831 355.633L596.821 355.631C590.04 354.322 586.282 352.193 583.741 350.096L580.261 347.225L581.329 351.608L587.51 376.98C587.719 378.114 590.137 391.419 575.866 400.703C571.994 403.205 568.433 403.917 565.787 403.279C563.247 402.667 561.25 400.743 560.497 397.191C559.728 393.561 560.464 389.188 562.436 385.034C564.402 380.892 567.532 377.105 571.353 374.634L571.36 374.63C575.347 372.024 579.43 371.707 582.207 372.787L584.823 373.804L584.215 371.064L568.884 301.953L571.206 300.406C571.83 301.888 572.904 303.97 574.59 306.076C577.41 309.6 581.976 313.226 588.994 314.156C594.076 314.83 596.789 317.563 597.922 321.075C598.505 322.88 598.679 324.933 598.487 327.068Z" stroke="url(#paint0_linear)" stroke-opacity="0.5" stroke-width="3"/>
<mask id="path-3-inside-1" fill="white">
<path d="M299.942 730.676L300.393 732.14L300.602 733.27C300.696 733.641 300.754 734.179 300.867 734.624C300.906 735.087 301.038 735.606 301.077 736.07C301.154 736.997 301.232 737.924 301.236 738.87C301.243 740.763 301.102 742.693 300.775 744.512C300.157 748.3 298.871 751.942 297.175 755.215C295.202 758.952 292.651 762.285 289.727 765.08C290.587 766.598 291.447 768.115 292.289 769.559C295.187 774.741 297.974 779.793 300.019 785.034C300.507 786.331 301.013 787.701 301.427 789.017C301.521 789.387 301.597 789.684 301.691 790.055L301.936 791.018C302.051 791.778 302.22 792.445 302.26 793.224C302.513 796.08 302.227 798.994 301.42 801.725C300.979 803.1 300.427 804.346 299.781 805.536C299.136 806.726 298.304 807.806 297.453 808.811L296.769 809.538C295.621 810.619 295.177 811.048 294.695 811.328C293.695 812.056 292.731 812.617 291.675 813.123C291.452 813.179 291.322 813.291 291.1 813.348C290.247 813.723 289.356 813.949 288.465 814.176C287.426 814.44 286.33 814.482 285.29 814.431C283.209 814.329 281.145 813.67 279.451 812.602C277.756 811.533 276.339 810 275.33 808.52C274.769 807.558 274.339 806.799 273.946 805.873C273.571 805.021 273.252 804.077 273.025 803.187C272.027 799.574 272.253 795.491 273.28 792.073C274.564 787.8 276.896 785.471 279.434 783.957C279.713 783.807 279.991 783.658 280.269 783.508C283.699 782.083 287.365 783.755 288.846 787.403C290.477 791.329 288.824 796.327 285.266 798.495C284.914 798.663 284.636 798.813 284.284 798.981C283.134 799.432 281.983 799.567 280.905 799.367C280.721 799.888 280.612 800.389 280.54 801.039C280.504 801.521 280.488 802.078 280.546 802.616C280.604 803.153 280.773 803.821 280.812 804.284L281.132 805.229C281.207 805.525 281.357 805.803 281.506 806.081C281.806 806.636 282.124 807.265 282.478 807.728C283.3 808.781 284.454 809.593 285.886 809.939C286.574 810.158 287.373 810.192 288.153 810.151C288.933 810.111 289.842 809.958 290.64 809.676C290.863 809.62 291.011 809.582 291.215 809.451C291.864 809.207 292.55 808.796 293.161 808.404C293.569 808.142 293.976 807.881 294.365 807.545L295.513 806.464C297.03 804.973 298.267 803.001 299.039 800.753C299.81 798.504 300.19 795.961 300.014 793.401C300.011 792.771 299.935 792.159 299.765 791.492L299.594 790.509C299.518 790.213 299.443 789.916 299.349 789.545C299.028 788.285 298.615 786.97 298.127 785.673C297.17 783.155 295.971 780.618 294.699 778.101C293.426 775.583 291.986 773.029 290.546 770.476C289.705 769.032 288.864 767.589 287.948 766.164C286.078 767.824 284.004 769.299 281.853 770.477C280.612 771.188 279.406 771.731 278.127 772.293C276.124 773.118 274.065 773.721 272.042 774.157L270.761 774.404L269.461 774.577L268.849 774.653L268.143 774.675L266.899 774.755C266.026 774.74 265.004 774.763 264.187 774.656L262.886 774.513L261.548 774.222C258.034 773.458 254.61 771.804 251.74 769.219C250.305 767.927 248.925 766.542 247.785 764.859C247.188 764.063 246.646 763.175 246.123 762.361C245.655 761.454 245.113 760.566 244.719 759.64C242.904 755.919 241.68 751.732 240.995 747.487C240.292 743.167 240.033 738.734 240.313 734.243C240.519 729.771 241.115 725.279 242.139 720.914C242.613 718.742 243.236 716.531 243.878 714.395C244.539 712.332 245.145 710.363 245.805 708.301C246.888 704.79 248.045 701.26 249.034 697.693C246.095 691.732 243.193 685.604 240.475 679.272C237.383 672.087 234.402 664.716 232.105 656.619C231.577 654.544 231.049 652.468 230.725 650.262C230.401 648.056 230.132 645.756 230.659 642.86C230.787 642.117 230.988 641.355 231.338 640.556C231.688 639.757 232.26 638.901 233.019 638.155C233.149 638.044 233.537 637.708 233.667 637.596C234.075 637.334 234.075 637.334 234.223 637.297C234.501 637.147 234.705 637.016 234.928 636.96C235.076 636.922 235.224 636.884 235.354 636.772C236.077 636.509 236.839 636.395 237.47 636.392C238.807 636.367 239.978 636.622 241.02 636.988C242.062 637.355 243.048 637.814 243.979 638.367C247.702 640.576 250.63 643.699 253.076 647.101C255.615 650.559 257.599 654.317 259.267 658.391L259.905 659.965L260.43 661.41C260.806 662.577 261.144 663.596 261.427 664.708C261.993 666.931 262.522 669.322 262.736 671.715C263.33 676.536 262.921 681.454 262.27 686.039C261.201 693.02 259.442 699.465 257.405 705.745C259.539 710.095 261.709 714.278 263.88 718.462C264.213 718.219 264.453 717.921 264.787 717.678C265.898 716.764 267.195 715.961 268.511 715.232C268.993 714.951 269.493 714.745 269.994 714.539C270.847 714.164 271.719 713.863 272.61 713.636C278.306 712.108 284.366 713.25 289.468 716.53C290.771 717.303 291.982 718.337 293.119 719.389C294.256 720.442 295.375 721.735 296.272 723.086C297.243 724.417 298.103 725.935 298.76 727.583C299.341 728.935 299.641 729.805 299.942 730.676ZM280.821 767.662C282.842 766.595 284.694 765.177 286.341 763.574C286.229 763.445 286.191 763.297 286.06 763.093C284.453 760.503 282.827 757.839 281.108 755.119C277.762 749.735 274.267 744.074 270.809 738.245C269.183 735.581 267.593 732.749 265.929 729.937C263.656 732.804 262.312 735.908 261.673 738.99C261.035 742.073 261.065 744.986 261.52 747.395C261.993 749.879 262.799 751.805 263.715 753.23C264.631 754.654 265.692 755.41 266.437 755.852C266.809 756.073 267.163 756.22 267.33 756.256C267.516 756.367 267.683 756.403 267.683 756.403C267.683 756.403 267.535 756.441 267.312 756.497C267.164 756.535 267.09 756.554 266.867 756.611C266.7 756.574 266.477 756.631 266.235 756.614C265.288 756.618 263.82 756.439 262.107 755.296C260.431 754.302 258.678 752.38 257.33 749.566C255.982 746.752 254.965 743.065 255.115 738.686C255.173 734.251 256.491 729.181 259.333 724.511C259.666 723.953 260.072 723.376 260.479 722.8L261.125 721.925C261.181 721.832 261.31 721.72 261.366 721.627C259.477 718.24 257.662 714.834 255.81 711.281C255.718 711.541 255.626 711.801 255.534 712.061C254.854 714.049 254.175 716.037 253.421 718.044C252.778 719.865 252.153 721.76 251.677 723.618C250.652 727.351 249.793 731.121 249.231 734.816C248.201 742.26 248.323 749.884 250.465 756.442C250.673 757.258 251.029 758.035 251.31 758.832C251.666 759.61 252.022 760.387 252.433 761.072C253.2 762.534 254.097 763.884 255.179 765.03C256.205 766.268 257.397 767.228 258.645 768.094C259.893 768.96 261.326 769.622 262.702 770.061C264.171 770.556 265.639 770.735 267.107 770.914L268.37 770.908L268.927 770.924L269.54 770.847L270.71 770.786L271.861 770.651C273.383 770.422 274.961 770.1 276.463 769.481C276.983 769.348 277.483 769.142 277.91 768.955C278.949 768.69 279.932 768.204 280.821 767.662ZM293.192 753.229C295.473 747.282 295.3 741.012 293.593 736.474L293.161 735.4L293.143 735.326L293.012 735.122L292.824 734.696C292.525 734.141 292.319 733.641 291.964 733.179C291.329 732.236 290.62 731.311 289.855 730.48C288.345 728.891 286.594 727.6 284.844 726.624C281.27 724.692 277.33 724.116 274.101 724.78C273.285 724.987 272.542 725.176 271.764 725.532C270.985 725.888 270.28 726.225 269.539 726.729C269.187 726.898 268.872 727.215 268.539 727.457C270.111 730.53 271.719 733.436 273.347 736.415C278.341 745.484 283.202 754.034 287.877 762.157C290.114 759.457 291.96 756.462 293.192 753.229ZM240.129 666.416C241.388 670.121 242.795 673.788 244.257 677.362C246.319 682.362 248.511 687.251 250.703 692.139C251.363 689.761 251.893 687.495 252.404 685.155C253.169 681.33 253.638 677.581 253.458 674.075C253.395 672.276 253.11 670.533 252.806 668.716C252.653 667.808 252.353 666.937 252.127 666.048L251.675 664.584L251.262 663.269C250.115 659.693 248.746 656.174 246.988 652.991C245.229 649.808 243.157 646.941 240.679 644.967C239.487 644.008 238.054 643.346 237.013 643.295C236.772 643.278 236.53 643.26 236.382 643.298C236.308 643.317 236.233 643.336 236.233 643.336L236.159 643.355C236.104 643.448 235.938 643.727 235.828 644.228C235.536 645.565 235.562 647.532 235.792 649.367C236.041 651.277 236.364 653.168 236.78 655.114C237.667 658.914 238.871 662.711 240.129 666.416Z"/>
</mask>
<path d="M299.942 730.676L300.393 732.14L300.602 733.27C300.696 733.641 300.754 734.179 300.867 734.624C300.906 735.087 301.038 735.606 301.077 736.07C301.154 736.997 301.232 737.924 301.236 738.87C301.243 740.763 301.102 742.693 300.775 744.512C300.157 748.3 298.871 751.942 297.175 755.215C295.202 758.952 292.651 762.285 289.727 765.08C290.587 766.598 291.447 768.115 292.289 769.559C295.187 774.741 297.974 779.793 300.019 785.034C300.507 786.331 301.013 787.701 301.427 789.017C301.521 789.387 301.597 789.684 301.691 790.055L301.936 791.018C302.051 791.778 302.22 792.445 302.26 793.224C302.513 796.08 302.227 798.994 301.42 801.725C300.979 803.1 300.427 804.346 299.781 805.536C299.136 806.726 298.304 807.806 297.453 808.811L296.769 809.538C295.621 810.619 295.177 811.048 294.695 811.328C293.695 812.056 292.731 812.617 291.675 813.123C291.452 813.179 291.322 813.291 291.1 813.348C290.247 813.723 289.356 813.949 288.465 814.176C287.426 814.44 286.33 814.482 285.29 814.431C283.209 814.329 281.145 813.67 279.451 812.602C277.756 811.533 276.339 810 275.33 808.52C274.769 807.558 274.339 806.799 273.946 805.873C273.571 805.021 273.252 804.077 273.025 803.187C272.027 799.574 272.253 795.491 273.28 792.073C274.564 787.8 276.896 785.471 279.434 783.957C279.713 783.807 279.991 783.658 280.269 783.508C283.699 782.083 287.365 783.755 288.846 787.403C290.477 791.329 288.824 796.327 285.266 798.495C284.914 798.663 284.636 798.813 284.284 798.981C283.134 799.432 281.983 799.567 280.905 799.367C280.721 799.888 280.612 800.389 280.54 801.039C280.504 801.521 280.488 802.078 280.546 802.616C280.604 803.153 280.773 803.821 280.812 804.284L281.132 805.229C281.207 805.525 281.357 805.803 281.506 806.081C281.806 806.636 282.124 807.265 282.478 807.728C283.3 808.781 284.454 809.593 285.886 809.939C286.574 810.158 287.373 810.192 288.153 810.151C288.933 810.111 289.842 809.958 290.64 809.676C290.863 809.62 291.011 809.582 291.215 809.451C291.864 809.207 292.55 808.796 293.161 808.404C293.569 808.142 293.976 807.881 294.365 807.545L295.513 806.464C297.03 804.973 298.267 803.001 299.039 800.753C299.81 798.504 300.19 795.961 300.014 793.401C300.011 792.771 299.935 792.159 299.765 791.492L299.594 790.509C299.518 790.213 299.443 789.916 299.349 789.545C299.028 788.285 298.615 786.97 298.127 785.673C297.17 783.155 295.971 780.618 294.699 778.101C293.426 775.583 291.986 773.029 290.546 770.476C289.705 769.032 288.864 767.589 287.948 766.164C286.078 767.824 284.004 769.299 281.853 770.477C280.612 771.188 279.406 771.731 278.127 772.293C276.124 773.118 274.065 773.721 272.042 774.157L270.761 774.404L269.461 774.577L268.849 774.653L268.143 774.675L266.899 774.755C266.026 774.74 265.004 774.763 264.187 774.656L262.886 774.513L261.548 774.222C258.034 773.458 254.61 771.804 251.74 769.219C250.305 767.927 248.925 766.542 247.785 764.859C247.188 764.063 246.646 763.175 246.123 762.361C245.655 761.454 245.113 760.566 244.719 759.64C242.904 755.919 241.68 751.732 240.995 747.487C240.292 743.167 240.033 738.734 240.313 734.243C240.519 729.771 241.115 725.279 242.139 720.914C242.613 718.742 243.236 716.531 243.878 714.395C244.539 712.332 245.145 710.363 245.805 708.301C246.888 704.79 248.045 701.26 249.034 697.693C246.095 691.732 243.193 685.604 240.475 679.272C237.383 672.087 234.402 664.716 232.105 656.619C231.577 654.544 231.049 652.468 230.725 650.262C230.401 648.056 230.132 645.756 230.659 642.86C230.787 642.117 230.988 641.355 231.338 640.556C231.688 639.757 232.26 638.901 233.019 638.155C233.149 638.044 233.537 637.708 233.667 637.596C234.075 637.334 234.075 637.334 234.223 637.297C234.501 637.147 234.705 637.016 234.928 636.96C235.076 636.922 235.224 636.884 235.354 636.772C236.077 636.509 236.839 636.395 237.47 636.392C238.807 636.367 239.978 636.622 241.02 636.988C242.062 637.355 243.048 637.814 243.979 638.367C247.702 640.576 250.63 643.699 253.076 647.101C255.615 650.559 257.599 654.317 259.267 658.391L259.905 659.965L260.43 661.41C260.806 662.577 261.144 663.596 261.427 664.708C261.993 666.931 262.522 669.322 262.736 671.715C263.33 676.536 262.921 681.454 262.27 686.039C261.201 693.02 259.442 699.465 257.405 705.745C259.539 710.095 261.709 714.278 263.88 718.462C264.213 718.219 264.453 717.921 264.787 717.678C265.898 716.764 267.195 715.961 268.511 715.232C268.993 714.951 269.493 714.745 269.994 714.539C270.847 714.164 271.719 713.863 272.61 713.636C278.306 712.108 284.366 713.25 289.468 716.53C290.771 717.303 291.982 718.337 293.119 719.389C294.256 720.442 295.375 721.735 296.272 723.086C297.243 724.417 298.103 725.935 298.76 727.583C299.341 728.935 299.641 729.805 299.942 730.676ZM280.821 767.662C282.842 766.595 284.694 765.177 286.341 763.574C286.229 763.445 286.191 763.297 286.06 763.093C284.453 760.503 282.827 757.839 281.108 755.119C277.762 749.735 274.267 744.074 270.809 738.245C269.183 735.581 267.593 732.749 265.929 729.937C263.656 732.804 262.312 735.908 261.673 738.99C261.035 742.073 261.065 744.986 261.52 747.395C261.993 749.879 262.799 751.805 263.715 753.23C264.631 754.654 265.692 755.41 266.437 755.852C266.809 756.073 267.163 756.22 267.33 756.256C267.516 756.367 267.683 756.403 267.683 756.403C267.683 756.403 267.535 756.441 267.312 756.497C267.164 756.535 267.09 756.554 266.867 756.611C266.7 756.574 266.477 756.631 266.235 756.614C265.288 756.618 263.82 756.439 262.107 755.296C260.431 754.302 258.678 752.38 257.33 749.566C255.982 746.752 254.965 743.065 255.115 738.686C255.173 734.251 256.491 729.181 259.333 724.511C259.666 723.953 260.072 723.376 260.479 722.8L261.125 721.925C261.181 721.832 261.31 721.72 261.366 721.627C259.477 718.24 257.662 714.834 255.81 711.281C255.718 711.541 255.626 711.801 255.534 712.061C254.854 714.049 254.175 716.037 253.421 718.044C252.778 719.865 252.153 721.76 251.677 723.618C250.652 727.351 249.793 731.121 249.231 734.816C248.201 742.26 248.323 749.884 250.465 756.442C250.673 757.258 251.029 758.035 251.31 758.832C251.666 759.61 252.022 760.387 252.433 761.072C253.2 762.534 254.097 763.884 255.179 765.03C256.205 766.268 257.397 767.228 258.645 768.094C259.893 768.96 261.326 769.622 262.702 770.061C264.171 770.556 265.639 770.735 267.107 770.914L268.37 770.908L268.927 770.924L269.54 770.847L270.71 770.786L271.861 770.651C273.383 770.422 274.961 770.1 276.463 769.481C276.983 769.348 277.483 769.142 277.91 768.955C278.949 768.69 279.932 768.204 280.821 767.662ZM293.192 753.229C295.473 747.282 295.3 741.012 293.593 736.474L293.161 735.4L293.143 735.326L293.012 735.122L292.824 734.696C292.525 734.141 292.319 733.641 291.964 733.179C291.329 732.236 290.62 731.311 289.855 730.48C288.345 728.891 286.594 727.6 284.844 726.624C281.27 724.692 277.33 724.116 274.101 724.78C273.285 724.987 272.542 725.176 271.764 725.532C270.985 725.888 270.28 726.225 269.539 726.729C269.187 726.898 268.872 727.215 268.539 727.457C270.111 730.53 271.719 733.436 273.347 736.415C278.341 745.484 283.202 754.034 287.877 762.157C290.114 759.457 291.96 756.462 293.192 753.229ZM240.129 666.416C241.388 670.121 242.795 673.788 244.257 677.362C246.319 682.362 248.511 687.251 250.703 692.139C251.363 689.761 251.893 687.495 252.404 685.155C253.169 681.33 253.638 677.581 253.458 674.075C253.395 672.276 253.11 670.533 252.806 668.716C252.653 667.808 252.353 666.937 252.127 666.048L251.675 664.584L251.262 663.269C250.115 659.693 248.746 656.174 246.988 652.991C245.229 649.808 243.157 646.941 240.679 644.967C239.487 644.008 238.054 643.346 237.013 643.295C236.772 643.278 236.53 643.26 236.382 643.298C236.308 643.317 236.233 643.336 236.233 643.336L236.159 643.355C236.104 643.448 235.938 643.727 235.828 644.228C235.536 645.565 235.562 647.532 235.792 649.367C236.041 651.277 236.364 653.168 236.78 655.114C237.667 658.914 238.871 662.711 240.129 666.416Z" stroke="url(#paint1_linear)" stroke-opacity="0.5" stroke-width="6" mask="url(#path-3-inside-1)"/>
<path d="M1610.84 348.5H1611.85C1611.85 348.823 1611.85 349.186 1611.86 349.583C1611.91 351.219 1612.11 353.48 1612.7 356.064C1613.88 361.233 1616.61 367.756 1622.72 373.143C1627.97 377.833 1629.24 383.275 1628.13 388.036C1627.88 389.135 1627.49 390.206 1626.99 391.231C1627.47 389.385 1627.65 387.353 1627.29 385.201C1626.78 382.079 1625.18 378.839 1622 375.652C1616.05 369.704 1613.58 365.194 1612.27 361.604L1610.52 356.777L1609.4 361.79L1593.63 432.405C1593.62 432.421 1593.61 432.438 1593.61 432.456C1592.89 434.381 1587.92 447.807 1571.83 447.495L1571.82 447.494H1571.8C1570.91 447.494 1570.19 447.49 1569.49 447.35L1569.45 447.342L1569.41 447.336C1565.45 446.77 1562.4 445.093 1560.56 442.782C1558.75 440.499 1558 437.461 1558.85 433.879L1558.85 433.873C1560.75 425.792 1569.78 419.229 1579.07 419.392L1579.08 419.392H1579.09C1579.84 419.392 1580.51 419.401 1580.99 419.521L1581.05 419.537L1581.11 419.547C1585.11 420.186 1588.22 422.087 1590.23 424.71L1592.15 427.224L1592.88 424.146L1610.84 348.5Z" stroke="url(#paint2_linear)" stroke-opacity="0.5" stroke-width="3"/>
<path d="M1486.83 754.633L1487.72 754.137C1487.87 754.421 1488.05 754.736 1488.25 755.077C1489.09 756.483 1490.36 758.357 1492.13 760.327C1495.67 764.267 1501.23 768.636 1509.19 770.367C1516.06 771.908 1519.81 776.04 1521.15 780.732C1521.46 781.821 1521.64 782.947 1521.71 784.087C1521.23 782.242 1520.39 780.377 1519.04 778.667C1517.08 776.189 1514.1 774.14 1509.77 772.906C1501.68 770.604 1497.33 767.87 1494.45 765.371L1490.57 762.013L1492.02 766.929L1512.49 836.251C1512.5 836.267 1512.5 836.285 1512.5 836.304C1512.81 838.329 1514.98 852.47 1500.75 860.024L1500.74 860.031L1500.72 860.038C1499.94 860.472 1499.31 860.818 1498.63 861.036L1498.59 861.048L1498.55 861.063C1494.81 862.495 1491.33 862.514 1488.6 861.391C1485.9 860.282 1483.78 857.996 1482.79 854.453L1482.78 854.448C1480.52 846.471 1485.23 836.35 1493.44 831.973L1493.45 831.967L1493.47 831.961C1494.12 831.599 1494.71 831.281 1495.19 831.152L1495.25 831.135L1495.31 831.113C1499.11 829.729 1502.76 829.873 1505.79 831.188L1508.69 832.446L1507.83 829.407L1486.83 754.633Z" stroke="url(#paint3_linear)" stroke-opacity="0.5" stroke-width="3"/>
<circle cx="936.148" cy="1137.8" r="372.108" transform="rotate(18.6103 936.148 1137.8)" stroke="#FC5E08" stroke-width="2"/>
<path d="M1340.72 1275.81C1267.92 1491.99 1028.8 1606.61 806.596 1531.79C584.396 1456.96 463.309 1221.04 536.105 1004.86C608.902 788.681 848.029 674.058 1070.23 748.882C1292.43 823.705 1413.52 1059.63 1340.72 1275.81Z" stroke="url(#paint4_linear)"/>
<circle cx="938.973" cy="1141.7" r="457.834" transform="rotate(78.6103 938.973 1141.7)" stroke="url(#paint5_linear)"/>
<path d="M1096.76 672.386C1356.38 759.81 1495.97 1041.14 1408.55 1300.76C1321.12 1560.38 1039.79 1699.97 780.172 1612.55C520.553 1525.13 380.961 1243.79 468.385 984.174C555.808 724.555 837.142 584.963 1096.76 672.386Z" stroke="url(#paint6_linear)" stroke-opacity="0.8"/>
<circle cx="938.466" cy="1142.47" r="539.543" transform="rotate(-56.3897 938.466 1142.47)" stroke="url(#paint7_linear)" stroke-opacity="0.5"/>
<circle cx="938.466" cy="1142.47" r="583.085" transform="rotate(93.6103 938.466 1142.47)" stroke="url(#paint8_linear)" stroke-opacity="0.3"/>
<defs>
<linearGradient id="paint0_linear" x1="597.008" y1="306.099" x2="565.444" y2="404.765" gradientUnits="userSpaceOnUse">
<stop/>
<stop offset="0.0001" stop-color="#FC5E08"/>
<stop offset="1" stop-color="#FBDF9B"/>
</linearGradient>
<linearGradient id="paint1_linear" x1="243.823" y1="634.587" x2="289.445" y2="813.926" gradientUnits="userSpaceOnUse">
<stop stop-color="#FC5E08"/>
<stop offset="1" stop-color="#FBDF9B"/>
</linearGradient>
<linearGradient id="paint2_linear" x1="1538.23" y1="448.721" x2="1662.1" y2="382.056" gradientUnits="userSpaceOnUse">
<stop stop-color="#FC5E08"/>
<stop offset="1" stop-color="#FBDF9B"/>
</linearGradient>
<linearGradient id="paint3_linear" x1="1471.95" y1="877.44" x2="1547.75" y2="758.858" gradientUnits="userSpaceOnUse">
<stop stop-color="#FC5E08"/>
<stop offset="1" stop-color="#FBDF9B"/>
</linearGradient>
<linearGradient id="paint4_linear" x1="1070.39" y1="748.408" x2="806.437" y2="1532.26" gradientUnits="userSpaceOnUse">
<stop stop-color="#FC5E08"/>
<stop offset="1" stop-color="#FBDF9B"/>
</linearGradient>
<linearGradient id="paint5_linear" x1="938.973" y1="683.366" x2="938.973" y2="1600.03" gradientUnits="userSpaceOnUse">
<stop stop-color="#FC5E08"/>
<stop offset="1" stop-color="#FBDF9B"/>
</linearGradient>
<linearGradient id="paint6_linear" x1="467.911" y1="984.014" x2="1409.02" y2="1300.92" gradientUnits="userSpaceOnUse">
<stop stop-color="#FC5E08"/>
<stop offset="1" stop-color="#FBDF9B"/>
</linearGradient>
<linearGradient id="paint7_linear" x1="938.466" y1="602.423" x2="938.466" y2="1682.51" gradientUnits="userSpaceOnUse">
<stop stop-color="#FC5E08"/>
<stop offset="1" stop-color="#FBDF9B"/>
</linearGradient>
<linearGradient id="paint8_linear" x1="938.466" y1="558.881" x2="938.466" y2="1726.05" gradientUnits="userSpaceOnUse">
<stop stop-color="#FC5E08"/>
<stop offset="1" stop-color="#FBDF9B"/>
</linearGradient>
</defs>
</svg>
